<?xml version="1.0" encoding="UTF-8" standalone="no"?>
<svg
   xmlns:osb="http://www.openswatchbook.org/uri/2009/osb"
   xmlns:dc="http://purl.org/dc/elements/1.1/"
   xmlns:cc="http://creativecommons.org/ns#"
   xmlns:rdf="http://www.w3.org/1999/02/22-rdf-syntax-ns#"
   xmlns:svg="http://www.w3.org/2000/svg"
   xmlns="http://www.w3.org/2000/svg"
   xmlns:sodipodi="http://sodipodi.sourceforge.net/DTD/sodipodi-0.dtd"
   xmlns:inkscape="http://www.inkscape.org/namespaces/inkscape"
   width="160mm"
   height="60mm"
   viewBox="0 0 160 60"
   version="1.1"
   id="capacitorsvg"
   inkscape:version="1.0.2-2 (e86c870879, 2021-01-15)"
   sodipodi:docname="Base.svg">
  <sodipodi:namedview
     pagecolor="#ffffff"
     bordercolor="#666666"
     borderopacity="1"
     objecttolerance="10"
     gridtolerance="10"
     guidetolerance="10"
     inkscape:pageopacity="0"
     inkscape:pageshadow="2"
     inkscape:window-width="1368"
     inkscape:window-height="850"
     id="namedview21"
     showgrid="false"
     inkscape:zoom="0.86152016"
     inkscape:cx="305.65669"
     inkscape:cy="184.64887"
     inkscape:window-x="-6"
     inkscape:window-y="-6"
     inkscape:window-maximized="1"
     inkscape:current-layer="draw_layer"
     inkscape:document-rotation="0" />
  <metadata
     id="metadata5">
    <rdf:RDF>
      <cc:Work
         rdf:about="">
        <dc:format>image/svg+xml</dc:format>
        <dc:type
           rdf:resource="http://purl.org/dc/dcmitype/StillImage" />
        <dc:title></dc:title>
      </cc:Work>
    </rdf:RDF>
  </metadata>
  <defs
     id="defs2">
    <linearGradient
       id="linearGradient2783"
       osb:paint="solid">
      <stop
         style="stop-color:#000000;stop-opacity:1;"
         offset="0"
         id="stop2781" />
    </linearGradient>
  </defs>
  <g
     inkscape:groupmode="layer"
     id="draw_layer"
     transform="translate(0,0)"
     inkscape:label="#draw_layer">
    <path
       id="path22"
       style="fill:#000000;fill-opacity:1;stroke:none;stroke-width:1.933;stroke-linejoin:round;stroke-miterlimit:4;stroke-dasharray:none;stroke-dashoffset:0;stroke-opacity:1"
       d="M 529.32422 109.60547 A 37.795276 37.795276 0 0 0 529.30664 109.77344 A 37.795276 37.795276 0 0 0 529.26172 110.28711 A 37.795276 37.795276 0 0 0 529.22266 110.80273 A 37.795276 37.795276 0 0 0 529.18945 111.31836 A 37.795276 37.795276 0 0 0 529.16602 111.83594 A 37.795276 37.795276 0 0 0 529.14844 112.35156 A 37.795276 37.795276 0 0 0 529.13672 112.86914 A 37.795276 37.795276 0 0 0 529.13477 113.38672 A 37.795276 37.795276 0 0 0 529.13672 113.82031 A 37.795276 37.795276 0 0 0 529.14648 114.33789 A 37.795276 37.795276 0 0 0 529.16211 114.85352 A 37.795276 37.795276 0 0 0 529.18555 115.37109 A 37.795276 37.795276 0 0 0 529.2168 115.88672 A 37.795276 37.795276 0 0 0 529.25391 116.40234 A 37.795276 37.795276 0 0 0 529.29883 116.91797 A 37.795276 37.795276 0 0 0 529.32422 117.16602 L 529.32617 117.16602 A 37.795276 37.795276 0 0 0 529.38086 117.67969 A 37.795276 37.795276 0 0 0 529.44336 118.19336 A 37.795276 37.795276 0 0 0 529.51172 118.70508 A 37.795276 37.795276 0 0 0 529.58789 119.2168 A 37.795276 37.795276 0 0 0 529.96289 121.25 A 37.795276 37.795276 0 0 0 530.07422 121.75586 A 37.795276 37.795276 0 0 0 530.44922 123.25977 A 37.795276 37.795276 0 0 0 531.38086 126.2168 A 37.795276 37.795276 0 0 0 531.74414 127.18359 A 37.795276 37.795276 0 0 0 531.9375 127.66602 A 37.795276 37.795276 0 0 0 532.55273 129.08984 A 37.795276 37.795276 0 0 0 533.22656 130.48633 A 37.795276 37.795276 0 0 0 533.46289 130.94531 A 37.795276 37.795276 0 0 0 533.70703 131.40234 A 37.795276 37.795276 0 0 0 533.95508 131.85352 A 37.795276 37.795276 0 0 0 534.21094 132.30273 A 37.795276 37.795276 0 0 0 534.47266 132.75 A 37.795276 37.795276 0 0 0 534.74023 133.19141 A 37.795276 37.795276 0 0 0 535.01367 133.62891 A 37.795276 37.795276 0 0 0 535.29492 134.06445 A 37.795276 37.795276 0 0 0 535.58008 134.49609 A 37.795276 37.795276 0 0 0 535.86328 134.91211 A 37.795276 37.795276 0 0 0 535.88086 134.93555 A 37.795276 37.795276 0 0 0 536.16992 135.3457 A 37.795276 37.795276 0 0 0 536.47266 135.76367 A 37.795276 37.795276 0 0 0 536.78125 136.17773 A 37.795276 37.795276 0 0 0 537.0957 136.58789 A 37.795276 37.795276 0 0 0 537.41602 136.99414 A 37.795276 37.795276 0 0 0 537.74219 137.39648 A 37.795276 37.795276 0 0 0 538.41016 138.18555 A 37.795276 37.795276 0 0 0 538.75195 138.57227 A 37.795276 37.795276 0 0 0 539.45117 139.33398 A 37.795276 37.795276 0 0 0 539.80859 139.70703 A 37.795276 37.795276 0 0 0 540.17188 140.07617 A 37.795276 37.795276 0 0 0 540.53906 140.43945 A 37.795276 37.795276 0 0 0 540.91211 140.79883 A 37.795276 37.795276 0 0 0 541.28906 141.15234 A 37.795276 37.795276 0 0 0 541.66992 141.5 A 37.795276 37.795276 0 0 0 542.05664 141.8418 A 37.795276 37.795276 0 0 0 542.44922 142.17969 A 37.795276 37.795276 0 0 0 542.8457 142.51172 A 37.795276 37.795276 0 0 0 543.24609 142.83984 A 37.795276 37.795276 0 0 0 543.65039 143.16016 A 37.795276 37.795276 0 0 0 544.06055 143.47656 A 37.795276 37.795276 0 0 0 544.47461 143.78516 A 37.795276 37.795276 0 0 0 544.89258 144.08984 A 37.795276 37.795276 0 0 0 545.31445 144.38867 A 37.795276 37.795276 0 0 0 545.74023 144.68164 A 37.795276 37.795276 0 0 0 546.14453 144.95117 A 37.795276 37.795276 0 0 0 546.14648 144.95312 A 37.795276 37.795276 0 0 0 546.15039 144.95508 A 37.795276 37.795276 0 0 0 546.56641 145.22461 A 37.795276 37.795276 0 0 0 546.59766 145.24414 A 37.795276 37.795276 0 0 0 547.00586 145.50195 A 37.795276 37.795276 0 0 0 547.03906 145.52148 A 37.795276 37.795276 0 0 0 547.41016 145.75 A 37.795276 37.795276 0 0 0 547.96289 146.07617 A 37.795276 37.795276 0 0 0 548.37695 146.3125 A 37.795276 37.795276 0 0 0 548.76172 146.52734 A 37.795276 37.795276 0 0 0 548.80273 146.55078 A 37.795276 37.795276 0 0 0 548.84961 146.57617 A 37.795276 37.795276 0 0 0 548.86719 146.58594 A 37.795276 37.795276 0 0 0 549.28516 146.80859 A 37.795276 37.795276 0 0 0 549.74414 147.04688 A 37.795276 37.795276 0 0 0 550.20508 147.2793 A 37.795276 37.795276 0 0 0 550.59961 147.4707 A 37.795276 37.795276 0 0 0 550.64062 147.49023 A 37.795276 37.795276 0 0 0 550.92969 147.62695 A 37.795276 37.795276 0 0 0 551.25977 147.7793 A 37.795276 37.795276 0 0 0 551.28711 147.79102 A 37.795276 37.795276 0 0 0 551.60938 147.93555 A 37.795276 37.795276 0 0 0 551.99219 148.10352 A 37.795276 37.795276 0 0 0 552.0293 148.11914 A 37.795276 37.795276 0 0 0 552.15039 148.16992 A 37.795276 37.795276 0 0 0 552.56055 148.3418 A 37.795276 37.795276 0 0 0 553.03906 148.53516 A 37.795276 37.795276 0 0 0 553.58984 148.74805 A 37.795276 37.795276 0 0 0 553.95117 148.88281 A 37.795276 37.795276 0 0 0 555.01758 149.25391 A 37.795276 37.795276 0 0 0 555.04688 149.26367 A 37.795276 37.795276 0 0 0 555.47461 149.40234 A 37.795276 37.795276 0 0 0 555.9043 149.53711 A 37.795276 37.795276 0 0 0 556.02539 149.57227 A 37.795276 37.795276 0 0 0 556.4043 149.68555 A 37.795276 37.795276 0 0 0 556.41797 149.68945 A 37.795276 37.795276 0 0 0 556.75195 149.78516 A 37.795276 37.795276 0 0 0 557.17188 149.90039 A 37.795276 37.795276 0 0 0 557.26758 149.92578 A 37.795276 37.795276 0 0 0 557.63281 150.01953 A 37.795276 37.795276 0 0 0 557.99219 150.10742 A 37.795276 37.795276 0 0 0 558.42383 150.21094 A 37.795276 37.795276 0 0 0 559.00391 150.33984 A 37.795276 37.795276 0 0 0 559.43359 150.42969 A 37.795276 37.795276 0 0 0 560 150.54102 A 37.795276 37.795276 0 0 0 560.11719 150.5625 A 37.795276 37.795276 0 0 0 560.41797 150.61523 A 37.795276 37.795276 0 0 0 560.46875 150.625 A 37.795276 37.795276 0 0 0 560.51953 150.63281 A 37.795276 37.795276 0 0 0 560.95703 150.70508 A 37.795276 37.795276 0 0 0 560.98828 150.71094 A 37.795276 37.795276 0 0 0 561.625 150.80664 A 37.795276 37.795276 0 0 0 561.65625 150.81055 A 37.795276 37.795276 0 0 0 561.91602 150.8457 A 37.795276 37.795276 0 0 0 562.30664 150.89648 A 37.795276 37.795276 0 0 0 562.74609 150.94922 A 37.795276 37.795276 0 0 0 562.85547 150.96094 A 37.795276 37.795276 0 0 0 563.27148 151.00391 A 37.795276 37.795276 0 0 0 563.64453 151.03711 A 37.795276 37.795276 0 0 0 563.92578 151.0625 A 37.795276 37.795276 0 0 0 563.95898 151.06445 A 37.795276 37.795276 0 0 0 564.3457 151.0918 A 37.795276 37.795276 0 0 0 564.78516 151.11914 A 37.795276 37.795276 0 0 0 564.91602 151.12695 A 37.795276 37.795276 0 0 0 565.37891 151.14844 A 37.795276 37.795276 0 0 0 565.89453 151.16602 A 37.795276 37.795276 0 0 0 566.41211 151.17773 A 37.795276 37.795276 0 0 0 566.92969 151.18164 A 37.795276 37.795276 0 0 0 566.93164 151.18164 A 37.795276 37.795276 0 0 0 567.36328 151.17773 A 37.795276 37.795276 0 0 0 567.78711 151.17188 A 37.795276 37.795276 0 0 0 568.39648 151.15234 A 37.795276 37.795276 0 0 0 568.91406 151.12891 A 37.795276 37.795276 0 0 0 569.42969 151.09766 A 37.795276 37.795276 0 0 0 569.94531 151.06055 A 37.795276 37.795276 0 0 0 570.41406 151.01953 A 37.795276 37.795276 0 0 0 570.67383 150.99414 A 37.795276 37.795276 0 0 0 571.05078 150.95508 A 37.795276 37.795276 0 0 0 571.05859 150.95508 A 37.795276 37.795276 0 0 0 571.48828 150.9043 A 37.795276 37.795276 0 0 0 571.92969 150.84961 A 37.795276 37.795276 0 0 0 572.11719 150.82227 A 37.795276 37.795276 0 0 0 572.51367 150.76562 A 37.795276 37.795276 0 0 0 573.02344 150.68555 A 37.795276 37.795276 0 0 0 573.5332 150.59961 A 37.795276 37.795276 0 0 0 574.04102 150.50586 A 37.795276 37.795276 0 0 0 574.54883 150.4043 A 37.795276 37.795276 0 0 0 575.05469 150.29688 A 37.795276 37.795276 0 0 0 576.06055 150.06055 A 37.795276 37.795276 0 0 0 577.06055 149.79688 A 37.795276 37.795276 0 0 0 577.47461 149.67969 A 37.795276 37.795276 0 0 0 577.82422 149.57617 A 37.795276 37.795276 0 0 0 578.13477 149.48242 A 37.795276 37.795276 0 0 0 578.54492 149.35156 A 37.795276 37.795276 0 0 0 579.03711 149.18945 A 37.795276 37.795276 0 0 0 579.52539 149.01953 A 37.795276 37.795276 0 0 0 580.00781 148.84766 A 37.795276 37.795276 0 0 0 580.01172 148.8457 A 37.795276 37.795276 0 0 0 580.49609 148.66211 A 37.795276 37.795276 0 0 0 580.97266 148.47656 A 37.795276 37.795276 0 0 0 581.45508 148.27734 A 37.795276 37.795276 0 0 0 581.93164 148.07617 A 37.795276 37.795276 0 0 0 582.4043 147.86719 A 37.795276 37.795276 0 0 0 582.875 147.65234 A 37.795276 37.795276 0 0 0 583.3418 147.43164 A 37.795276 37.795276 0 0 0 583.80469 147.20312 A 37.795276 37.795276 0 0 0 584.26562 146.9707 A 37.795276 37.795276 0 0 0 584.72656 146.72852 A 37.795276 37.795276 0 0 0 585.17773 146.48242 A 37.795276 37.795276 0 0 0 585.62891 146.23047 A 37.795276 37.795276 0 0 0 586.07812 145.9707 A 37.795276 37.795276 0 0 0 586.52148 145.70703 A 37.795276 37.795276 0 0 0 586.96094 145.43555 A 37.795276 37.795276 0 0 0 587.39844 145.1582 A 37.795276 37.795276 0 0 0 587.83008 144.875 A 37.795276 37.795276 0 0 0 588.25977 144.58789 A 37.795276 37.795276 0 0 0 588.68359 144.29297 A 37.795276 37.795276 0 0 0 589.10547 143.99219 A 37.795276 37.795276 0 0 0 589.52148 143.68555 A 37.795276 37.795276 0 0 0 589.93359 143.37305 A 37.795276 37.795276 0 0 0 590.3418 143.05664 A 37.795276 37.795276 0 0 0 590.74609 142.73242 A 37.795276 37.795276 0 0 0 591.14453 142.4043 A 37.795276 37.795276 0 0 0 591.53906 142.07031 A 37.795276 37.795276 0 0 0 591.92578 141.73633 A 37.795276 37.795276 0 0 0 592.31445 141.38672 A 37.795276 37.795276 0 0 0 592.69531 141.03711 A 37.795276 37.795276 0 0 0 593.07031 140.68164 A 37.795276 37.795276 0 0 0 593.44141 140.32227 A 37.795276 37.795276 0 0 0 593.80859 139.95703 A 37.795276 37.795276 0 0 0 593.86719 139.89844 A 37.795276 37.795276 0 0 0 594.16797 139.58594 A 37.795276 37.795276 0 0 0 594.52344 139.21094 A 37.795276 37.795276 0 0 0 594.875 138.83203 A 37.795276 37.795276 0 0 0 595.2207 138.44727 A 37.795276 37.795276 0 0 0 595.56055 138.05859 A 37.795276 37.795276 0 0 0 595.89453 137.66406 A 37.795276 37.795276 0 0 0 596.22461 137.26562 A 37.795276 37.795276 0 0 0 596.54883 136.86328 A 37.795276 37.795276 0 0 0 596.86719 136.45508 A 37.795276 37.795276 0 0 0 597.17969 136.04297 A 37.795276 37.795276 0 0 0 597.48633 135.62891 A 37.795276 37.795276 0 0 0 597.78906 135.20703 A 37.795276 37.795276 0 0 0 598.08398 134.7832 A 37.795276 37.795276 0 0 0 598.37305 134.35547 A 37.795276 37.795276 0 0 0 598.6582 133.92383 A 37.795276 37.795276 0 0 0 598.93555 133.48828 A 37.795276 37.795276 0 0 0 599.20703 133.04883 A 37.795276 37.795276 0 0 0 599.47266 132.60547 A 37.795276 37.795276 0 0 0 599.73242 132.1582 A 37.795276 37.795276 0 0 0 599.98633 131.70703 A 37.795276 37.795276 0 0 0 600.23438 131.25391 A 37.795276 37.795276 0 0 0 600.47461 130.79688 A 37.795276 37.795276 0 0 0 600.71094 130.33594 A 37.795276 37.795276 0 0 0 600.93945 129.87305 A 37.795276 37.795276 0 0 0 601.16211 129.40625 A 37.795276 37.795276 0 0 0 601.37695 128.93555 A 37.795276 37.795276 0 0 0 601.58594 128.46289 A 37.795276 37.795276 0 0 0 601.78906 127.98828 A 37.795276 37.795276 0 0 0 601.98633 127.50977 A 37.795276 37.795276 0 0 0 602.17578 127.0293 A 37.795276 37.795276 0 0 0 602.35938 126.54492 A 37.795276 37.795276 0 0 0 602.53711 126.05859 A 37.795276 37.795276 0 0 0 602.70703 125.57227 A 37.795276 37.795276 0 0 0 602.86914 125.08008 A 37.795276 37.795276 0 0 0 603.02539 124.58789 A 37.795276 37.795276 0 0 0 603.17578 124.09375 A 37.795276 37.795276 0 0 0 603.31836 123.5957 A 37.795276 37.795276 0 0 0 603.45508 123.09766 A 37.795276 37.795276 0 0 0 603.58398 122.59766 A 37.795276 37.795276 0 0 0 603.70703 122.0957 A 37.795276 37.795276 0 0 0 603.82227 121.5918 A 37.795276 37.795276 0 0 0 603.93164 121.08594 A 37.795276 37.795276 0 0 0 604.0332 120.58008 A 37.795276 37.795276 0 0 0 604.12891 120.07031 A 37.795276 37.795276 0 0 0 604.2168 119.5625 A 37.795276 37.795276 0 0 0 604.29688 119.05078 A 37.795276 37.795276 0 0 0 604.37109 118.53906 A 37.795276 37.795276 0 0 0 604.4375 118.02734 A 37.795276 37.795276 0 0 0 604.49805 117.51367 A 37.795276 37.795276 0 0 0 604.55078 117 A 37.795276 37.795276 0 0 0 604.59766 116.48438 A 37.795276 37.795276 0 0 0 604.63672 115.96875 A 37.795276 37.795276 0 0 0 604.66797 115.45312 A 37.795276 37.795276 0 0 0 604.69336 114.93555 A 37.795276 37.795276 0 0 0 604.71094 114.41992 A 37.795276 37.795276 0 0 0 604.7207 113.90234 A 37.795276 37.795276 0 0 0 604.72461 113.38672 A 37.795276 37.795276 0 0 0 604.72266 112.95117 A 37.795276 37.795276 0 0 0 604.71289 112.43359 A 37.795276 37.795276 0 0 0 604.69531 111.91797 A 37.795276 37.795276 0 0 0 604.67188 111.40039 A 37.795276 37.795276 0 0 0 604.64062 110.88477 A 37.795276 37.795276 0 0 0 604.60352 110.36914 A 37.795276 37.795276 0 0 0 604.55859 109.85547 A 37.795276 37.795276 0 0 0 604.50781 109.33984 A 37.795276 37.795276 0 0 0 604.44922 108.82617 A 37.795276 37.795276 0 0 0 604.38281 108.31445 A 37.795276 37.795276 0 0 0 604.31055 107.80273 A 37.795276 37.795276 0 0 0 604.23047 107.29102 A 37.795276 37.795276 0 0 0 604.14258 106.78125 A 37.795276 37.795276 0 0 0 604.04883 106.27344 A 37.795276 37.795276 0 0 0 603.94922 105.76562 A 37.795276 37.795276 0 0 0 603.83984 105.25977 A 37.795276 37.795276 0 0 0 603.72656 104.75586 A 37.795276 37.795276 0 0 0 603.60547 104.25391 A 37.795276 37.795276 0 0 0 603.47656 103.75391 A 37.795276 37.795276 0 0 0 603.3418 103.25391 A 37.795276 37.795276 0 0 0 603.19922 102.75781 A 37.795276 37.795276 0 0 0 603.05078 102.26172 A 37.795276 37.795276 0 0 0 602.89453 101.76953 A 37.795276 37.795276 0 0 0 602.73242 101.27734 A 37.795276 37.795276 0 0 0 602.56445 100.78906 A 37.795276 37.795276 0 0 0 602.38867 100.30273 A 37.795276 37.795276 0 0 0 602.20508 99.820312 A 37.795276 37.795276 0 0 0 602.01758 99.337891 A 37.795276 37.795276 0 0 0 601.82227 98.859375 A 37.795276 37.795276 0 0 0 601.61914 98.384766 A 37.795276 37.795276 0 0 0 601.41211 97.910156 A 37.795276 37.795276 0 0 0 601.19531 97.441406 A 37.795276 37.795276 0 0 0 600.97461 96.972656 A 37.795276 37.795276 0 0 0 600.74805 96.509766 A 37.795276 37.795276 0 0 0 600.51367 96.048828 A 37.795276 37.795276 0 0 0 600.27344 95.589844 A 37.795276 37.795276 0 0 0 600.23633 95.519531 A 37.795276 37.795276 0 0 0 600.02734 95.136719 A 37.795276 37.795276 0 0 0 599.77344 94.685547 A 37.795276 37.795276 0 0 0 599.51562 94.238281 A 37.795276 37.795276 0 0 0 599.25 93.792969 A 37.795276 37.795276 0 0 0 598.97852 93.353516 A 37.795276 37.795276 0 0 0 598.70117 92.917969 A 37.795276 37.795276 0 0 0 598.41992 92.484375 A 37.795276 37.795276 0 0 0 598.13086 92.056641 A 37.795276 37.795276 0 0 0 597.83594 91.630859 A 37.795276 37.795276 0 0 0 597.53516 91.210938 A 37.795276 37.795276 0 0 0 597.22852 90.792969 A 37.795276 37.795276 0 0 0 596.91797 90.380859 A 37.795276 37.795276 0 0 0 596.86914 90.316406 A 37.795276 37.795276 0 0 0 596.59961 89.972656 A 37.795276 37.795276 0 0 0 596.27734 89.570312 A 37.795276 37.795276 0 0 0 595.94727 89.169922 A 37.795276 37.795276 0 0 0 595.61523 88.775391 A 37.795276 37.795276 0 0 0 595.27539 88.386719 A 37.795276 37.795276 0 0 0 594.92969 88 A 37.795276 37.795276 0 0 0 594.58008 87.619141 A 37.795276 37.795276 0 0 0 594.22461 87.244141 A 37.795276 37.795276 0 0 0 593.86523 86.873047 A 37.795276 37.795276 0 0 0 593.5 86.507812 A 37.795276 37.795276 0 0 0 593.13086 86.146484 A 37.795276 37.795276 0 0 0 592.75586 85.791016 A 37.795276 37.795276 0 0 0 592.375 85.439453 A 37.795276 37.795276 0 0 0 591.99023 85.09375 A 37.795276 37.795276 0 0 0 591.60156 84.753906 A 37.795276 37.795276 0 0 0 591.20703 84.419922 A 37.795276 37.795276 0 0 0 590.80859 84.089844 A 37.795276 37.795276 0 0 0 590.40625 83.765625 A 37.795276 37.795276 0 0 0 589.99805 83.447266 A 37.795276 37.795276 0 0 0 589.58789 83.134766 A 37.795276 37.795276 0 0 0 589.17188 82.828125 A 37.795276 37.795276 0 0 0 588.75195 82.527344 A 37.795276 37.795276 0 0 0 588.32617 82.230469 A 37.795276 37.795276 0 0 0 587.89844 81.941406 A 37.795276 37.795276 0 0 0 587.4668 81.658203 A 37.795276 37.795276 0 0 0 587.03125 81.378906 A 37.795276 37.795276 0 0 0 586.5918 81.107422 A 37.795276 37.795276 0 0 0 586.14844 80.841797 A 37.795276 37.795276 0 0 0 585.70117 80.582031 A 37.795276 37.795276 0 0 0 585.25 80.328125 A 37.795276 37.795276 0 0 0 584.79688 80.080078 A 37.795276 37.795276 0 0 0 584.33984 79.839844 A 37.795276 37.795276 0 0 0 583.87891 79.605469 A 37.795276 37.795276 0 0 0 583.41602 79.375 A 37.795276 37.795276 0 0 0 582.94922 79.154297 A 37.795276 37.795276 0 0 0 582.47852 78.9375 A 37.795276 37.795276 0 0 0 582.00586 78.728516 A 37.795276 37.795276 0 0 0 581.53125 78.525391 A 37.795276 37.795276 0 0 0 581.10156 78.347656 A 37.795276 37.795276 0 0 0 580.13672 77.974609 A 37.795276 37.795276 0 0 0 579.6875 77.810547 A 37.795276 37.795276 0 0 0 579.60352 77.779297 A 37.795276 37.795276 0 0 0 579.11523 77.609375 A 37.795276 37.795276 0 0 0 578.625 77.445312 A 37.795276 37.795276 0 0 0 578.13086 77.289062 A 37.795276 37.795276 0 0 0 577.63672 77.138672 A 37.795276 37.795276 0 0 0 577.14062 76.996094 A 37.795276 37.795276 0 0 0 576.64062 76.859375 A 37.795276 37.795276 0 0 0 576.14062 76.730469 A 37.795276 37.795276 0 0 0 575.63867 76.607422 A 37.795276 37.795276 0 0 0 575.13477 76.492188 A 37.795276 37.795276 0 0 0 574.62891 76.382812 A 37.795276 37.795276 0 0 0 574.12305 76.28125 A 37.795276 37.795276 0 0 0 573.10547 76.097656 A 37.795276 37.795276 0 0 0 572.59375 76.017578 A 37.795276 37.795276 0 0 0 572.08203 75.943359 A 37.795276 37.795276 0 0 0 571.57031 75.876953 A 37.795276 37.795276 0 0 0 571.05664 75.816406 A 37.795276 37.795276 0 0 0 570.54297 75.763672 A 37.795276 37.795276 0 0 0 569.94922 75.710938 A 37.795276 37.795276 0 0 0 569.51172 75.679688 A 37.795276 37.795276 0 0 0 569.06641 75.650391 A 37.795276 37.795276 0 0 0 568.87891 75.640625 A 37.795276 37.795276 0 0 0 568.48047 75.623047 A 37.795276 37.795276 0 0 0 567.96289 75.605469 A 37.795276 37.795276 0 0 0 567.44531 75.59375 A 37.795276 37.795276 0 0 0 566.93164 75.589844 A 37.795276 37.795276 0 0 0 566.91992 75.589844 A 37.795276 37.795276 0 0 0 566.49414 75.59375 A 37.795276 37.795276 0 0 0 566.09375 75.599609 A 37.795276 37.795276 0 0 0 566.08008 75.599609 A 37.795276 37.795276 0 0 0 565.57617 75.615234 A 37.795276 37.795276 0 0 0 565.46094 75.619141 A 37.795276 37.795276 0 0 0 564.94531 75.642578 A 37.795276 37.795276 0 0 0 564.42773 75.673828 A 37.795276 37.795276 0 0 0 563.91211 75.710938 A 37.795276 37.795276 0 0 0 562.88281 75.808594 A 37.795276 37.795276 0 0 0 562.36914 75.867188 A 37.795276 37.795276 0 0 0 562.00586 75.912109 A 37.795276 37.795276 0 0 0 561.95117 75.919922 A 37.795276 37.795276 0 0 0 561.49414 75.984375 A 37.795276 37.795276 0 0 0 561.03711 76.054688 A 37.795276 37.795276 0 0 0 560.83398 76.085938 A 37.795276 37.795276 0 0 0 560.37695 76.162109 A 37.795276 37.795276 0 0 0 558.72656 76.492188 A 37.795276 37.795276 0 0 0 558.22266 76.607422 A 37.795276 37.795276 0 0 0 557.7207 76.730469 A 37.795276 37.795276 0 0 0 557.21875 76.859375 A 37.795276 37.795276 0 0 0 556.69336 77.003906 A 37.795276 37.795276 0 0 0 556.68164 77.007812 A 37.795276 37.795276 0 0 0 556.22461 77.138672 A 37.795276 37.795276 0 0 0 555.72852 77.289062 A 37.795276 37.795276 0 0 0 555.23633 77.445312 A 37.795276 37.795276 0 0 0 554.74609 77.609375 A 37.795276 37.795276 0 0 0 554.25781 77.779297 A 37.795276 37.795276 0 0 0 552.75977 78.347656 A 37.795276 37.795276 0 0 0 552.33008 78.525391 A 37.795276 37.795276 0 0 0 551.85352 78.728516 A 37.795276 37.795276 0 0 0 549.94727 79.621094 A 37.795276 37.795276 0 0 0 549.89453 79.648438 A 37.795276 37.795276 0 0 0 549.48633 79.857422 A 37.795276 37.795276 0 0 0 549.06445 80.080078 A 37.795276 37.795276 0 0 0 548.61133 80.328125 A 37.795276 37.795276 0 0 0 548.58008 80.345703 A 37.795276 37.795276 0 0 0 548.16016 80.582031 A 37.795276 37.795276 0 0 0 547.71289 80.841797 A 37.795276 37.795276 0 0 0 547.26953 81.107422 A 37.795276 37.795276 0 0 0 546.83008 81.378906 A 37.795276 37.795276 0 0 0 546.39453 81.658203 A 37.795276 37.795276 0 0 0 545.96289 81.941406 A 37.795276 37.795276 0 0 0 545.4707 82.273438 A 37.795276 37.795276 0 0 0 545.40625 82.318359 A 37.795276 37.795276 0 0 0 545.04688 82.570312 A 37.795276 37.795276 0 0 0 544.68945 82.828125 A 37.795276 37.795276 0 0 0 543.86133 83.447266 A 37.795276 37.795276 0 0 0 543.45508 83.765625 A 37.795276 37.795276 0 0 0 543.05273 84.089844 A 37.795276 37.795276 0 0 0 542.6543 84.419922 A 37.795276 37.795276 0 0 0 542.25977 84.753906 A 37.795276 37.795276 0 0 0 541.10547 85.791016 A 37.795276 37.795276 0 0 0 540.73047 86.146484 A 37.795276 37.795276 0 0 0 540.35938 86.507812 A 37.795276 37.795276 0 0 0 539.99414 86.873047 A 37.795276 37.795276 0 0 0 539.63477 87.244141 A 37.795276 37.795276 0 0 0 539.28125 87.619141 A 37.795276 37.795276 0 0 0 538.92969 88 A 37.795276 37.795276 0 0 0 538.58594 88.384766 A 37.795276 37.795276 0 0 0 537.91211 89.169922 A 37.795276 37.795276 0 0 0 537.26172 89.972656 A 37.795276 37.795276 0 0 0 536.94336 90.380859 A 37.795276 37.795276 0 0 0 536.63086 90.792969 A 37.795276 37.795276 0 0 0 536.02539 91.630859 A 37.795276 37.795276 0 0 0 535.73047 92.054688 A 37.795276 37.795276 0 0 0 535.1582 92.916016 A 37.795276 37.795276 0 0 0 534.88086 93.353516 A 37.795276 37.795276 0 0 0 533.83398 95.134766 A 37.795276 37.795276 0 0 0 533.58789 95.589844 A 37.795276 37.795276 0 0 0 533.11328 96.507812 A 37.795276 37.795276 0 0 0 532.66406 97.439453 A 37.795276 37.795276 0 0 0 532.24023 98.382812 A 37.795276 37.795276 0 0 0 531.29688 100.78906 A 37.795276 37.795276 0 0 0 530.96484 101.76758 A 37.795276 37.795276 0 0 0 529.32617 109.60547 L 529.32422 109.60547 z "
       transform="scale(0.26458333)" />
    <path
       style="fill:#ffffff;fill-opacity:1;stroke:none;stroke-width:0.543411;stroke-linejoin:round;stroke-miterlimit:4;stroke-dasharray:none;stroke-dashoffset:0;stroke-opacity:1"
       d="m 150,21.5 a 8.4999678,8.5002446 0 0 1 8.5,8.500276 A 8.4999678,8.5002446 0 0 1 150,38.5 8.4999678,8.5002446 0 0 1 141.5,30.000276 8.4999678,8.5002446 0 0 1 150,21.5 Z"
       id="path18" />
    <path
       id="path22-7"
       style="fill:#000000;fill-opacity:1;stroke:none;stroke-width:0.511412;stroke-linejoin:round;stroke-miterlimit:4;stroke-dasharray:none;stroke-dashoffset:0;stroke-opacity:1"
       d="M 0.05077119,28.999741 A 9.9993845,9.9995339 0 0 0 0.04577149,29.044179 9.9993845,9.9995339 0 0 0 0.03387223,29.180082 9.9993845,9.9995339 0 0 0 0.02357286,29.3165 9.9993845,9.9995339 0 0 0 0.01457336,29.45292 9.9993845,9.9995339 0 0 0 0.00857373,29.589857 9.9993845,9.9995339 0 0 0 0.00357404,29.726276 9.9993845,9.9995339 0 0 0 5.74229e-4,29.863212 9.9993845,9.9995339 0 0 0 4.4261626e-5,30.000149 9.9993845,9.9995339 0 0 0 5.74229e-4,30.114864 a 9.9993845,9.9995339 0 0 0 0.002999811,0.136937 9.9993845,9.9995339 0 0 0 0.00399975,0.136421 9.9993845,9.9995339 0 0 0 0.00599963,0.136933 9.9993845,9.9995339 0 0 0 0.0079995,0.136421 9.9993845,9.9995339 0 0 0 0.0099994,0.136419 9.9993845,9.9995339 0 0 0 0.01189926,0.13642 9.9993845,9.9995339 0 0 0 0.0069996,0.06563 h 5.2997e-4 a 9.9993845,9.9995339 0 0 0 0.01449911,0.135902 9.9993845,9.9995339 0 0 0 0.01649898,0.135903 9.9993845,9.9995339 0 0 0 0.01809889,0.135385 9.9993845,9.9995339 0 0 0 0.0201988,0.135387 9.9993845,9.9995339 0 0 0 0.0991939,0.537926 9.9993845,9.9995339 0 0 0 0.0294982,0.133836 9.9993845,9.9995339 0 0 0 0.0991939,0.39789 9.9993845,9.9995339 0 0 0 0.24648483,0.782345 9.9993845,9.9995339 0 0 0 0.0960941,0.255785 9.9993845,9.9995339 0 0 0 0.0511968,0.127637 9.9993845,9.9995339 0 0 0 0.16276998,0.376701 9.9993845,9.9995339 0 0 0 0.17827896,0.369471 9.9993845,9.9995339 0 0 0 0.062496,0.121432 9.9993845,9.9995339 0 0 0 0.064596,0.120918 9.9993845,9.9995339 0 0 0 0.065596,0.119368 9.9993845,9.9995339 0 0 0 0.067696,0.118849 9.9993845,9.9995339 0 0 0 0.069196,0.118334 9.9993845,9.9995339 0 0 0 0.070796,0.116785 9.9993845,9.9995339 0 0 0 0.072396,0.115749 9.9993845,9.9995339 0 0 0 0.074396,0.115232 9.9993845,9.9995339 0 0 0 0.075495,0.114198 9.9993845,9.9995339 0 0 0 0.074895,0.110067 9.9993845,9.9995339 0 0 0 0.005,0.0062 9.9993845,9.9995339 0 0 0 0.076495,0.108513 9.9993845,9.9995339 0 0 0 0.080095,0.110583 9.9993845,9.9995339 0 0 0 0.081595,0.109549 9.9993845,9.9995339 0 0 0 0.083195,0.108516 9.9993845,9.9995339 0 0 0 0.084795,0.107482 9.9993845,9.9995339 0 0 0 0.086295,0.106448 9.9993845,9.9995339 0 0 0 0.1767291,0.208764 9.9993845,9.9995339 0 0 0 0.090394,0.102315 9.9993845,9.9995339 0 0 0 0.1849887,0.201527 9.9993845,9.9995339 0 0 0 0.094594,0.09869 9.9993845,9.9995339 0 0 0 0.096094,0.09767 9.9993845,9.9995339 0 0 0 0.097094,0.09611 9.9993845,9.9995339 0 0 0 0.098694,0.09509 9.9993845,9.9995339 0 0 0 0.099694,0.09352 9.9993845,9.9995339 0 0 0 0.1007538,0.09199 9.9993845,9.9995339 0 0 0 0.1023137,0.09043 9.9993845,9.9995339 0 0 0 0.1038636,0.0894 9.9993845,9.9995339 0 0 0 0.1049036,0.08785 9.9993845,9.9995339 0 0 0 0.1059235,0.08682 9.9993845,9.9995339 0 0 0 0.1069634,0.08475 9.9993845,9.9995339 0 0 0 0.1085233,0.08371 9.9993845,9.9995339 0 0 0 0.1095433,0.08165 9.9993845,9.9995339 0 0 0 0.1105832,0.08061 9.9993845,9.9995339 0 0 0 0.1116131,0.07907 9.9993845,9.9995339 0 0 0 0.1126431,0.07751 9.9993845,9.9995339 0 0 0 0.1069634,0.07131 9.9993845,9.9995339 0 0 0 5.299e-4,5.29e-4 9.9993845,9.9995339 0 0 0 10e-4,5.28e-4 9.9993845,9.9995339 0 0 0 0.1100632,0.07131 9.9993845,9.9995339 0 0 0 0.008,0.0052 9.9993845,9.9995339 0 0 0 0.1079934,0.06821 9.9993845,9.9995339 0 0 0 0.009,0.0052 9.9993845,9.9995339 0 0 0 0.098194,0.06046 9.9993845,9.9995339 0 0 0 0.146231,0.0863 9.9993845,9.9995339 0 0 0 0.1095532,0.06253 9.9993845,9.9995339 0 0 0 0.1017938,0.05684 9.9993845,9.9995339 0 0 0 0.010899,0.0062 9.9993845,9.9995339 0 0 0 0.012399,0.0067 9.9993845,9.9995339 0 0 0 0.005,0.0026 9.9993845,9.9995339 0 0 0 0.1105832,0.05891 9.9993845,9.9995339 0 0 0 0.1214325,0.06305 9.9993845,9.9995339 0 0 0 0.1219525,0.0615 9.9993845,9.9995339 0 0 0 0.1043736,0.05064 9.9993845,9.9995339 0 0 0 0.010899,0.0052 9.9993845,9.9995339 0 0 0 0.076495,0.03617 9.9993845,9.9995339 0 0 0 0.087295,0.04031 9.9993845,9.9995339 0 0 0 0.007,0.0031 9.9993845,9.9995339 0 0 0 0.085295,0.03824 9.9993845,9.9995339 0 0 0 0.1012737,0.04444 9.9993845,9.9995339 0 0 0 0.01,0.0041 9.9993845,9.9995339 0 0 0 0.031998,0.01344 9.9993845,9.9995339 0 0 0 0.1085133,0.04548 9.9993845,9.9995339 0 0 0 0.1266022,0.05116 9.9993845,9.9995339 0 0 0 0.145711,0.05633 9.9993845,9.9995339 0 0 0 0.095594,0.03566 9.9993845,9.9995339 0 0 0 0.2821427,0.09819 9.9993845,9.9995339 0 0 0 0.008,0.0026 9.9993845,9.9995339 0 0 0 0.113163,0.03669 9.9993845,9.9995339 0 0 0 0.113683,0.03566 9.9993845,9.9995339 0 0 0 0.031998,0.0093 9.9993845,9.9995339 0 0 0 0.1002439,0.02997 9.9993845,9.9995339 0 0 0 0.004,0.0011 9.9993845,9.9995339 0 0 0 0.088395,0.02532 9.9993845,9.9995339 0 0 0 0.1111031,0.03049 9.9993845,9.9995339 0 0 0 0.025298,0.0067 9.9993845,9.9995339 0 0 0 0.096594,0.02479 9.9993845,9.9995339 0 0 0 0.095094,0.02326 9.9993845,9.9995339 0 0 0 0.114193,0.02739 9.9993845,9.9995339 0 0 0 0.1534705,0.0341 9.9993845,9.9995339 0 0 0 0.113683,0.02376 9.9993845,9.9995339 0 0 0 0.1498508,0.02946 9.9993845,9.9995339 0 0 0 0.030998,0.0057 9.9993845,9.9995339 0 0 0 0.079595,0.01394 9.9993845,9.9995339 0 0 0 0.013399,0.0026 9.9993845,9.9995339 0 0 0 0.013399,0.0021 9.9993845,9.9995339 0 0 0 0.1157529,0.01913 9.9993845,9.9995339 0 0 0 0.008,0.0016 9.9993845,9.9995339 0 0 0 0.1684597,0.02532 9.9993845,9.9995339 0 0 0 0.008,0.0011 9.9993845,9.9995339 0 0 0 0.068696,0.0093 9.9993845,9.9995339 0 0 0 0.1033437,0.01344 9.9993845,9.9995339 0 0 0 0.1162728,0.01394 9.9993845,9.9995339 0 0 0 0.028898,0.0031 9.9993845,9.9995339 0 0 0 0.1100633,0.01138 9.9993845,9.9995339 0 0 0 0.098694,0.0088 9.9993845,9.9995339 0 0 0 0.074395,0.0067 9.9993845,9.9995339 0 0 0 0.009,5.29e-4 9.9993845,9.9995339 0 0 0 0.1023137,0.0072 9.9993845,9.9995339 0 0 0 0.1162628,0.0072 9.9993845,9.9995339 0 0 0 0.034598,0.0021 9.9993845,9.9995339 0 0 0 0.1224724,0.0057 9.9993845,9.9995339 0 0 0 0.1364116,0.0047 9.9993845,9.9995339 0 0 0 0.1369316,0.0031 9.9993845,9.9995339 0 0 0 0.1369406,0.0011 9.9993845,9.9995339 0 0 0 5.3e-4,0 9.9993845,9.9995339 0 0 0 0.114193,-0.0011 9.9993845,9.9995339 0 0 0 0.112134,-0.0016 9.9993845,9.9995339 0 0 0 0.16122,-0.0052 9.9993845,9.9995339 0 0 0 0.136931,-0.0062 9.9993845,9.9995339 0 0 0 0.136422,-0.0083 9.9993845,9.9995339 0 0 0 0.136411,-0.0098 9.9993845,9.9995339 0 0 0 0.124023,-0.01085 9.9993845,9.9995339 0 0 0 0.0687,-0.0067 9.9993845,9.9995339 0 0 0 0.09969,-0.01035 9.9993845,9.9995339 0 0 0 0.002,0 9.9993845,9.9995339 0 0 0 0.113683,-0.01344 9.9993845,9.9995339 0 0 0 0.116783,-0.01447 9.9993845,9.9995339 0 0 0 0.0496,-0.0072 9.9993845,9.9995339 0 0 0 0.104894,-0.01497 9.9993845,9.9995339 0 0 0 0.134871,-0.02119 9.9993845,9.9995339 0 0 0 0.134862,-0.02273 9.9993845,9.9995339 0 0 0 0.134352,-0.02479 9.9993845,9.9995339 0 0 0 0.134351,-0.02687 9.9993845,9.9995339 0 0 0 0.133832,-0.02842 9.9993845,9.9995339 0 0 0 0.266114,-0.06253 9.9993845,9.9995339 0 0 0 0.264574,-0.06976 9.9993845,9.9995339 0 0 0 0.109543,-0.03101 9.9993845,9.9995339 0 0 0 0.09249,-0.02739 9.9993845,9.9995339 0 0 0 0.0822,-0.02479 9.9993845,9.9995339 0 0 0 0.108513,-0.03462 9.9993845,9.9995339 0 0 0 0.130212,-0.04289 9.9993845,9.9995339 0 0 0 0.129182,-0.04496 9.9993845,9.9995339 0 0 0 0.127633,-0.04547 9.9993845,9.9995339 0 0 0 9.99e-4,-5.3e-4 9.9993845,9.9995339 0 0 0 0.128153,-0.04857 9.9993845,9.9995339 0 0 0 0.126082,-0.04909 9.9993845,9.9995339 0 0 0 0.127632,-0.05271 9.9993845,9.9995339 0 0 0 0.126082,-0.05323 9.9993845,9.9995339 0 0 0 0.125053,-0.05529 9.9993845,9.9995339 0 0 0 0.124532,-0.05685 9.9993845,9.9995339 0 0 0 0.123492,-0.05839 9.9993845,9.9995339 0 0 0 0.122473,-0.06046 9.9993845,9.9995339 0 0 0 0.121942,-0.06149 9.9993845,9.9995339 0 0 0 0.121953,-0.06408 9.9993845,9.9995339 0 0 0 0.119362,-0.06511 9.9993845,9.9995339 0 0 0 0.119373,-0.06666 9.9993845,9.9995339 0 0 0 0.118843,-0.06873 9.9993845,9.9995339 0 0 0 0.117302,-0.06976 9.9993845,9.9995339 0 0 0 0.116263,-0.07183 9.9993845,9.9995339 0 0 0 0.115743,-0.07338 9.9993845,9.9995339 0 0 0 0.114203,-0.07493 9.9993845,9.9995339 0 0 0 0.113683,-0.07596 9.9993845,9.9995339 0 0 0 0.112123,-0.07803 9.9993845,9.9995339 0 0 0 0.111623,-0.07958 9.9993845,9.9995339 0 0 0 0.110064,-0.08113 9.9993845,9.9995339 0 0 0 0.109023,-0.08268 9.9993845,9.9995339 0 0 0 0.108003,-0.08372 9.9993845,9.9995339 0 0 0 0.106964,-0.08578 9.9993845,9.9995339 0 0 0 0.105413,-0.08681 9.9993845,9.9995339 0 0 0 0.104374,-0.08837 9.9993845,9.9995339 0 0 0 0.102313,-0.08837 9.9993845,9.9995339 0 0 0 0.102834,-0.0925 9.9993845,9.9995339 0 0 0 0.100764,-0.09249 9.9993845,9.9995339 0 0 0 0.09919,-0.09405 9.9993845,9.9995339 0 0 0 0.09819,-0.09508 9.9993845,9.9995339 0 0 0 0.09709,-0.09664 9.9993845,9.9995339 0 0 0 0.0155,-0.01551 9.9993845,9.9995339 0 0 0 0.0796,-0.08268 9.9993845,9.9995339 0 0 0 0.09409,-0.09922 9.9993845,9.9995339 0 0 0 0.09299,-0.100248 9.9993845,9.9995339 0 0 0 0.09149,-0.101796 9.9993845,9.9995339 0 0 0 0.08989,-0.102834 9.9993845,9.9995339 0 0 0 0.08839,-0.104382 9.9993845,9.9995339 0 0 0 0.08729,-0.105415 9.9993845,9.9995339 0 0 0 0.0858,-0.106448 9.9993845,9.9995339 0 0 0 0.0842,-0.107998 9.9993845,9.9995339 0 0 0 0.0827,-0.109032 9.9993845,9.9995339 0 0 0 0.08109,-0.109549 9.9993845,9.9995339 0 0 0 0.0801,-0.111616 9.9993845,9.9995339 0 0 0 0.078,-0.112133 9.9993845,9.9995339 0 0 0 0.07649,-0.113166 9.9993845,9.9995339 0 0 0 0.0754,-0.114198 9.9993845,9.9995339 0 0 0 0.0734,-0.115235 9.9993845,9.9995339 0 0 0 0.0718,-0.116266 9.9993845,9.9995339 0 0 0 0.0703,-0.117299 9.9993845,9.9995339 0 0 0 0.0687,-0.118336 9.9993845,9.9995339 0 0 0 0.0672,-0.119366 9.9993845,9.9995339 0 0 0 0.0656,-0.119883 9.9993845,9.9995339 0 0 0 0.0636,-0.120916 9.9993845,9.9995339 0 0 0 0.0625,-0.121951 9.9993845,9.9995339 0 0 0 0.0605,-0.122468 9.9993845,9.9995339 0 0 0 0.0589,-0.123502 9.9993845,9.9995339 0 0 0 0.0568,-0.124533 9.9993845,9.9995339 0 0 0 0.0553,-0.125052 9.9993845,9.9995339 0 0 0 0.0537,-0.125568 9.9993845,9.9995339 0 0 0 0.0522,-0.1266 9.9993845,9.9995339 0 0 0 0.0501,-0.127118 9.9993845,9.9995339 0 0 0 0.0486,-0.128153 9.9993845,9.9995339 0 0 0 0.047,-0.128669 9.9993845,9.9995339 0 0 0 0.045,-0.128666 9.9993845,9.9995339 0 0 0 0.0429,-0.130219 9.9993845,9.9995339 0 0 0 0.0413,-0.130219 9.9993845,9.9995339 0 0 0 0.0398,-0.130736 9.9993845,9.9995339 0 0 0 0.0377,-0.131769 9.9993845,9.9995339 0 0 0 0.0362,-0.131767 9.9993845,9.9995339 0 0 0 0.0341,-0.132286 9.9993845,9.9995339 0 0 0 0.0326,-0.132804 9.9993845,9.9995339 0 0 0 0.0305,-0.133317 9.9993845,9.9995339 0 0 0 0.0289,-0.133836 9.9993845,9.9995339 0 0 0 0.0269,-0.133836 9.9993845,9.9995339 0 0 0 0.0253,-0.134871 9.9993845,9.9995339 0 0 0 0.0232,-0.134351 9.9993845,9.9995339 0 0 0 0.0212,-0.135386 9.9993845,9.9995339 0 0 0 0.0196,-0.135387 9.9993845,9.9995339 0 0 0 0.0176,-0.135386 9.9993845,9.9995339 0 0 0 0.016,-0.135902 9.9993845,9.9995339 0 0 0 0.0139,-0.135903 9.9993845,9.9995339 0 0 0 0.0124,-0.136417 9.9993845,9.9995339 0 0 0 0.0103,-0.136421 9.9993845,9.9995339 0 0 0 0.008,-0.136421 9.9993845,9.9995339 0 0 0 0.007,-0.136934 9.9993845,9.9995339 0 0 0 0.005,-0.136421 9.9993845,9.9995339 0 0 0 0.003,-0.136937 9.9993845,9.9995339 0 0 0 0.001,-0.136417 9.9993845,9.9995339 0 0 0 -5.3e-4,-0.115235 9.9993845,9.9995339 0 0 0 -0.003,-0.136936 9.9993845,9.9995339 0 0 0 -0.005,-0.136418 9.9993845,9.9995339 0 0 0 -0.006,-0.136937 9.9993845,9.9995339 0 0 0 -0.008,-0.136417 9.9993845,9.9995339 0 0 0 -0.01,-0.136422 9.9993845,9.9995339 0 0 0 -0.0119,-0.135902 9.9993845,9.9995339 0 0 0 -0.0134,-0.13642 9.9993845,9.9995339 0 0 0 -0.0155,-0.135903 9.9993845,9.9995339 0 0 0 -0.0176,-0.135386 9.9993845,9.9995339 0 0 0 -0.0191,-0.135386 9.9993845,9.9995339 0 0 0 -0.0212,-0.135384 9.9993845,9.9995339 0 0 0 -0.0233,-0.13487 9.9993845,9.9995339 0 0 0 -0.0248,-0.134352 9.9993845,9.9995339 0 0 0 -0.0263,-0.134354 9.9993845,9.9995339 0 0 0 -0.0289,-0.133834 9.9993845,9.9995339 0 0 0 -0.03,-0.13332 9.9993845,9.9995339 0 0 0 -0.032,-0.132802 9.9993845,9.9995339 0 0 0 -0.0341,-0.132284 9.9993845,9.9995339 0 0 0 -0.0357,-0.132286 9.9993845,9.9995339 0 0 0 -0.0377,-0.131254 9.9993845,9.9995339 0 0 0 -0.0393,-0.131251 9.9993845,9.9995339 0 0 0 -0.0413,-0.130219 9.9993845,9.9995339 0 0 0 -0.0429,-0.130219 9.9993845,9.9995339 0 0 0 -0.0444,-0.129185 9.9993845,9.9995339 0 0 0 -0.0465,-0.128669 9.9993845,9.9995339 0 0 0 -0.0486,-0.127634 9.9993845,9.9995339 0 0 0 -0.0496,-0.127634 9.9993845,9.9995339 0 0 0 -0.0517,-0.126602 9.9993845,9.9995339 0 0 0 -0.0537,-0.125567 9.9993845,9.9995339 0 0 0 -0.0548,-0.125568 9.9993845,9.9995339 0 0 0 -0.0574,-0.124019 9.9993845,9.9995339 0 0 0 -0.0584,-0.124017 9.9993845,9.9995339 0 0 0 -0.0599,-0.122467 9.9993845,9.9995339 0 0 0 -0.062,-0.12195 9.9993845,9.9995339 0 0 0 -0.0636,-0.121435 9.9993845,9.9995339 0 0 0 -0.01,-0.0186 9.9993845,9.9995339 0 0 0 -0.0553,-0.10128 9.9993845,9.9995339 0 0 0 -0.0672,-0.119368 9.9993845,9.9995339 0 0 0 -0.0682,-0.118333 9.9993845,9.9995339 0 0 0 -0.0703,-0.117817 9.9993845,9.9995339 0 0 0 -0.07179,-0.116266 9.9993845,9.9995339 0 0 0 -0.0734,-0.115234 9.9993845,9.9995339 0 0 0 -0.07439,-0.114715 9.9993845,9.9995339 0 0 0 -0.0765,-0.113167 9.9993845,9.9995339 0 0 0 -0.078,-0.11265 9.9993845,9.9995339 0 0 0 -0.07959,-0.111099 9.9993845,9.9995339 0 0 0 -0.0811,-0.110582 9.9993845,9.9995339 0 0 0 -0.08219,-0.109032 9.9993845,9.9995339 0 0 0 -0.0129,-0.01705 9.9993845,9.9995339 0 0 0 -0.0713,-0.09095 9.9993845,9.9995339 0 0 0 -0.08529,-0.106448 9.9993845,9.9995339 0 0 0 -0.08729,-0.105933 9.9993845,9.9995339 0 0 0 -0.0879,-0.104381 9.9993845,9.9995339 0 0 0 -0.08989,-0.102831 9.9993845,9.9995339 0 0 0 -0.09169,-0.102684 9.9993845,9.9995339 0 0 0 -0.09249,-0.100764 9.9993845,9.9995339 0 0 0 -0.09409,-0.09922 9.9993845,9.9995339 0 0 0 -0.09509,-0.09818 9.9993845,9.9995339 0 0 0 -0.09659,-0.09664 9.9993845,9.9995339 0 0 0 -0.09769,-0.09559 9.9993845,9.9995339 0 0 0 -0.09919,-0.09405 9.9993845,9.9995339 0 0 0 -0.100804,-0.09302 9.9993845,9.9995339 0 0 0 -0.101804,-0.09147 9.9993845,9.9995339 0 0 0 -0.102823,-0.08992 9.9993845,9.9995339 0 0 0 -0.104384,-0.08837 9.9993845,9.9995339 0 0 0 -0.105413,-0.08733 9.9993845,9.9995339 0 0 0 -0.106444,-0.08578 9.9993845,9.9995339 0 0 0 -0.107993,-0.08423 9.9993845,9.9995339 0 0 0 -0.108523,-0.08268 9.9993845,9.9995339 0 0 0 -0.110054,-0.08113 9.9993845,9.9995339 0 0 0 -0.111103,-0.07958 9.9993845,9.9995339 0 0 0 -0.112653,-0.07855 9.9993845,9.9995339 0 0 0 -0.113163,-0.07648 9.9993845,9.9995339 0 0 0 -0.114193,-0.07493 9.9993845,9.9995339 0 0 0 -0.115233,-0.0739 9.9993845,9.9995339 0 0 0 -0.116263,-0.07183 9.9993845,9.9995339 0 0 0 -0.117302,-0.07028 9.9993845,9.9995339 0 0 0 -0.118333,-0.06873 9.9993845,9.9995339 0 0 0 -0.119363,-0.06718 9.9993845,9.9995339 0 0 0 -0.119882,-0.06563 9.9993845,9.9995339 0 0 0 -0.120913,-0.06356 9.9993845,9.9995339 0 0 0 -0.121952,-0.06201 9.9993845,9.9995339 0 0 0 -0.122463,-0.06098 9.9993845,9.9995339 0 0 0 -0.123502,-0.05839 9.9993845,9.9995339 0 0 0 -0.124533,-0.05736 9.9993845,9.9995339 0 0 0 -0.125042,-0.05529 9.9993845,9.9995339 0 0 0 -0.125572,-0.05374 9.9993845,9.9995339 0 0 0 -0.113683,-0.04703 9.9993845,9.9995339 0 0 0 -0.255265,-0.09869 9.9993845,9.9995339 0 0 0 -0.118842,-0.04341 9.9993845,9.9995339 0 0 0 -0.0222,-0.0083 9.9993845,9.9995339 0 0 0 -0.129182,-0.04496 9.9993845,9.9995339 0 0 0 -0.129702,-0.04341 9.9993845,9.9995339 0 0 0 -0.130732,-0.04134 9.9993845,9.9995339 0 0 0 -0.130732,-0.03979 9.9993845,9.9995339 0 0 0 -0.131252,-0.03772 9.9993845,9.9995339 0 0 0 -0.132282,-0.03617 9.9993845,9.9995339 0 0 0 -0.132281,-0.03411 9.9993845,9.9995339 0 0 0 -0.132802,-0.03256 9.9993845,9.9995339 0 0 0 -0.133322,-0.03049 9.9993845,9.9995339 0 0 0 -0.133832,-0.02894 9.9993845,9.9995339 0 0 0 -0.133832,-0.02687 9.9993845,9.9995339 0 0 0 -0.269213,-0.04858 9.9993845,9.9995339 0 0 0 -0.135392,-0.02119 9.9993845,9.9995339 0 0 0 -0.135381,-0.01964 9.9993845,9.9995339 0 0 0 -0.135382,-0.01757 9.9993845,9.9995339 0 0 0 -0.135902,-0.01602 9.9993845,9.9995339 0 0 0 -0.135901,-0.01395 9.9993845,9.9995339 0 0 0 -0.157091,-0.01395 9.9993845,9.9995339 0 0 0 -0.115743,-0.0083 9.9993845,9.9995339 0 0 0 -0.117812,-0.0078 9.9993845,9.9995339 0 0 0 -0.0496,-0.0026 9.9993845,9.9995339 0 0 0 -0.10541,-0.0045 A 9.9993845,9.9995339 0 0 0 10.273192,20.0041 9.9993845,9.9995339 0 0 0 10.13625,20.001 9.9993845,9.9995339 0 0 0 10.000348,20 a 9.9993845,9.9995339 0 0 0 -0.003,0 9.9993845,9.9995339 0 0 0 -0.1126531,0.001 9.9993845,9.9995339 0 0 0 -0.1059235,0.0016 9.9993845,9.9995339 0 0 0 -0.004,0 9.9993845,9.9995339 0 0 0 -0.1333118,0.0041 9.9993845,9.9995339 0 0 0 -0.030498,0.001 9.9993845,9.9995339 0 0 0 -0.1364217,0.0062 9.9993845,9.9995339 0 0 0 -0.1369315,0.0083 9.9993845,9.9995339 0 0 0 -0.1364216,0.0098 9.9993845,9.9995339 0 0 0 -0.2723133,0.02584 9.9993845,9.9995339 0 0 0 -0.1359016,0.0155 9.9993845,9.9995339 0 0 0 -0.096094,0.01188 9.9993845,9.9995339 0 0 0 -0.014499,0.0021 9.9993845,9.9995339 0 0 0 -0.1209126,0.01705 9.9993845,9.9995339 0 0 0 -0.1209225,0.0186 9.9993845,9.9995339 0 0 0 -0.053697,0.0083 9.9993845,9.9995339 0 0 0 -0.1209126,0.02015 9.9993845,9.9995339 0 0 0 -0.4366431,0.08733 9.9993845,9.9995339 0 0 0 -0.1333118,0.03049 9.9993845,9.9995339 0 0 0 -0.1328018,0.03256 9.9993845,9.9995339 0 0 0 -0.1328018,0.03411 9.9993845,9.9995339 0 0 0 -0.1390015,0.03824 9.9993845,9.9995339 0 0 0 -0.003,0.001 9.9993845,9.9995339 0 0 0 -0.1209126,0.03462 9.9993845,9.9995339 0 0 0 -0.1312519,0.03979 9.9993845,9.9995339 0 0 0 -0.130212,0.04134 9.9993845,9.9995339 0 0 0 -0.129702,0.04341 9.9993845,9.9995339 0 0 0 -0.129182,0.04496 9.9993845,9.9995339 0 0 0 -0.3963356,0.150371 9.9993845,9.9995339 0 0 0 -0.113683,0.04703 9.9993845,9.9995339 0 0 0 -0.1260823,0.05374 9.9993845,9.9995339 0 0 0 -0.5043289,0.236151 9.9993845,9.9995339 0 0 0 -0.013899,0.0072 9.9993845,9.9995339 0 0 0 -0.1079933,0.05529 9.9993845,9.9995339 0 0 0 -0.1116232,0.05891 9.9993845,9.9995339 0 0 0 -0.1198726,0.06563 9.9993845,9.9995339 0 0 0 -0.008,0.0047 9.9993845,9.9995339 0 0 0 -0.1110932,0.06253 9.9993845,9.9995339 0 0 0 -0.1183327,0.06873 9.9993845,9.9995339 0 0 0 -0.1173027,0.07028 9.9993845,9.9995339 0 0 0 -0.1162629,0.07183 9.9993845,9.9995339 0 0 0 -0.1152329,0.0739 9.9993845,9.9995339 0 0 0 -0.114193,0.07493 9.9993845,9.9995339 0 0 0 -0.130222,0.08785 9.9993845,9.9995339 0 0 0 -0.016999,0.01188 9.9993845,9.9995339 0 0 0 -0.095094,0.06666 9.9993845,9.9995339 0 0 0 -0.094594,0.06821 9.9993845,9.9995339 0 0 0 -0.2190965,0.163806 9.9993845,9.9995339 0 0 0 -0.1074834,0.08423 9.9993845,9.9995339 0 0 0 -0.1064435,0.08578 9.9993845,9.9995339 0 0 0 -0.1054135,0.08733 9.9993845,9.9995339 0 0 0 -0.1043736,0.08837 9.9993845,9.9995339 0 0 0 -0.3053912,0.274389 9.9993845,9.9995339 0 0 0 -0.099194,0.09405 9.9993845,9.9995339 0 0 0 -0.098194,0.09559 9.9993845,9.9995339 0 0 0 -0.096594,0.09663 9.9993845,9.9995339 0 0 0 -0.095094,0.09819 9.9993845,9.9995339 0 0 0 -0.093494,0.09922 9.9993845,9.9995339 0 0 0 -0.093094,0.100772 9.9993845,9.9995339 0 0 0 -0.090894,0.101798 9.9993845,9.9995339 0 0 0 -0.1782791,0.20773 9.9993845,9.9995339 0 0 0 -0.1720694,0.21238 9.9993845,9.9995339 0 0 0 -0.084195,0.107999 9.9993845,9.9995339 0 0 0 -0.082695,0.109031 9.9993845,9.9995339 0 0 0 -0.1601902,0.221682 9.9993845,9.9995339 0 0 0 -0.077995,0.112133 9.9993845,9.9995339 0 0 0 -0.1514006,0.227882 9.9993845,9.9995339 0 0 0 -0.073395,0.11575 9.9993845,9.9995339 0 0 0 -0.276973,0.471267 9.9993845,9.9995339 0 0 0 -0.065096,0.1204 9.9993845,9.9995339 0 0 0 -0.1255722,0.242868 9.9993845,9.9995339 0 0 0 -0.11884271,0.246486 9.9993845,9.9995339 0 0 0 -0.1121331,0.249585 9.9993845,9.9995339 0 0 0 -0.24957464,0.636623 9.9993845,9.9995339 0 0 0 -0.0878946,0.258888 9.9993845,9.9995339 0 0 0 -0.43353331,2.073678 z" />
    <circle
       style="fill:#ffffff;fill-opacity:1;fill-rule:evenodd;stroke:none;stroke-width:0.563612;stroke-linecap:butt;stroke-linejoin:miter;stroke-miterlimit:4;stroke-dasharray:none;stroke-opacity:1;paint-order:fill markers stroke"
       cx="10"
       cy="30"
       id="circle14"
       r="8.5" />
    <rect
       style="fill:#000000;stroke-width:0.264583"
       id="rect47"
       width="20"
       height="2"
       x="19"
       y="29" />
    <rect
       style="fill:#000000;stroke-width:0.264583"
       id="rect47-6"
       width="20"
       height="2"
       x="121"
       y="29" />
  </g>
</svg>
