<?xml version="1.0" encoding="UTF-8" standalone="no"?>
<svg
   xmlns:osb="http://www.openswatchbook.org/uri/2009/osb"
   xmlns:dc="http://purl.org/dc/elements/1.1/"
   xmlns:cc="http://creativecommons.org/ns#"
   xmlns:rdf="http://www.w3.org/1999/02/22-rdf-syntax-ns#"
   xmlns:svg="http://www.w3.org/2000/svg"
   xmlns="http://www.w3.org/2000/svg"
   xmlns:sodipodi="http://sodipodi.sourceforge.net/DTD/sodipodi-0.dtd"
   xmlns:inkscape="http://www.inkscape.org/namespaces/inkscape"
   width="160mm"
   height="60mm"
   viewBox="0 0 160 60"
   version="1.1"
   id="capacitorsvg"
   inkscape:version="1.0.2-2 (e86c870879, 2021-01-15)"
   sodipodi:docname="LED.svg">
  <sodipodi:namedview
     pagecolor="#ffffff"
     bordercolor="#666666"
     borderopacity="1"
     objecttolerance="10"
     gridtolerance="10"
     guidetolerance="10"
     inkscape:pageopacity="0"
     inkscape:pageshadow="2"
     inkscape:window-width="1368"
     inkscape:window-height="850"
     id="namedview21"
     showgrid="false"
     inkscape:zoom="1"
     inkscape:cx="334.17391"
     inkscape:cy="181.71254"
     inkscape:window-x="-6"
     inkscape:window-y="-6"
     inkscape:window-maximized="1"
     inkscape:current-layer="draw_layer"
     inkscape:document-rotation="0" />
  <metadata
     id="metadata5">
    <rdf:RDF>
      <cc:Work
         rdf:about="">
        <dc:format>image/svg+xml</dc:format>
        <dc:type
           rdf:resource="http://purl.org/dc/dcmitype/StillImage" />
        <dc:title />
      </cc:Work>
    </rdf:RDF>
  </metadata>
  <defs
     id="defs2">
    <linearGradient
       id="linearGradient2783"
       osb:paint="solid">
      <stop
         style="stop-color:#000000;stop-opacity:1;"
         offset="0"
         id="stop2781" />
    </linearGradient>
  </defs>
  <g
     inkscape:groupmode="layer"
     id="draw_layer"
     transform="translate(0,0)"
     inkscape:label="#draw_layer">
    <path
       id="path22"
       style="fill:#000000;fill-opacity:1;stroke:none;stroke-width:1.933;stroke-linejoin:round;stroke-miterlimit:4;stroke-dasharray:none;stroke-dashoffset:0;stroke-opacity:1"
       d="M 283.71094 0 L 257.01367 13.724609 L 268.49023 20.144531 L 245.66992 63.185547 L 251.86328 66.529297 L 274.63477 23.582031 L 286.08984 29.992188 L 283.71094 0 z M 321.50586 0 L 294.81055 13.724609 L 306.28516 20.144531 L 283.46484 63.185547 L 289.6582 66.529297 L 312.42969 23.582031 L 323.88477 29.992188 L 321.50586 0 z M 188.97656 37.794922 L 188.97656 128.50391 L 75.398438 128.50391 A 37.79295 37.793514 0 0 0 75.373047 128.23828 A 37.79295 37.793514 0 0 0 75.314453 127.72461 A 37.79295 37.793514 0 0 0 75.248047 127.21289 A 37.79295 37.793514 0 0 0 75.175781 126.70117 A 37.79295 37.793514 0 0 0 75.095703 126.18945 A 37.79295 37.793514 0 0 0 75.005859 125.67969 A 37.79295 37.793514 0 0 0 74.914062 125.17188 A 37.79295 37.793514 0 0 0 74.814453 124.66406 A 37.79295 37.793514 0 0 0 74.705078 124.1582 A 37.79295 37.793514 0 0 0 74.591797 123.6543 A 37.79295 37.793514 0 0 0 74.470703 123.15234 A 37.79295 37.793514 0 0 0 74.341797 122.65234 A 37.79295 37.793514 0 0 0 74.207031 122.15234 A 37.79295 37.793514 0 0 0 74.064453 121.65625 A 37.79295 37.793514 0 0 0 73.916016 121.16016 A 37.79295 37.793514 0 0 0 73.759766 120.66797 A 37.79295 37.793514 0 0 0 73.597656 120.17578 A 37.79295 37.793514 0 0 0 73.429688 119.6875 A 37.79295 37.793514 0 0 0 73.253906 119.20117 A 37.79295 37.793514 0 0 0 73.070312 118.71875 A 37.79295 37.793514 0 0 0 72.882812 118.23633 A 37.79295 37.793514 0 0 0 72.6875 117.75781 A 37.79295 37.793514 0 0 0 72.484375 117.2832 A 37.79295 37.793514 0 0 0 72.277344 116.80859 A 37.79295 37.793514 0 0 0 72.060547 116.33984 A 37.79295 37.793514 0 0 0 71.839844 115.87109 A 37.79295 37.793514 0 0 0 71.613281 115.4082 A 37.79295 37.793514 0 0 0 71.378906 114.94727 A 37.79295 37.793514 0 0 0 71.138672 114.48828 A 37.79295 37.793514 0 0 0 71.099609 114.41797 A 37.79295 37.793514 0 0 0 70.890625 114.03516 A 37.79295 37.793514 0 0 0 70.636719 113.58398 A 37.79295 37.793514 0 0 0 70.378906 113.13672 A 37.79295 37.793514 0 0 0 70.113281 112.69141 A 37.79295 37.793514 0 0 0 69.841797 112.25195 A 37.79295 37.793514 0 0 0 69.564453 111.81641 A 37.79295 37.793514 0 0 0 69.283203 111.38281 A 37.79295 37.793514 0 0 0 68.994141 110.95703 A 37.79295 37.793514 0 0 0 68.699219 110.53125 A 37.79295 37.793514 0 0 0 68.398438 110.11133 A 37.79295 37.793514 0 0 0 68.091797 109.69336 A 37.79295 37.793514 0 0 0 67.78125 109.28125 A 37.79295 37.793514 0 0 0 67.732422 109.2168 A 37.79295 37.793514 0 0 0 67.462891 108.87305 A 37.79295 37.793514 0 0 0 67.140625 108.4707 A 37.79295 37.793514 0 0 0 66.8125 108.07031 A 37.79295 37.793514 0 0 0 66.478516 107.67578 A 37.79295 37.793514 0 0 0 66.138672 107.28711 A 37.79295 37.793514 0 0 0 65.792969 106.89844 A 37.79295 37.793514 0 0 0 65.443359 106.51758 A 37.79295 37.793514 0 0 0 65.087891 106.14258 A 37.79295 37.793514 0 0 0 64.728516 105.77148 A 37.79295 37.793514 0 0 0 64.363281 105.40625 A 37.79295 37.793514 0 0 0 63.994141 105.04492 A 37.79295 37.793514 0 0 0 63.619141 104.68945 A 37.79295 37.793514 0 0 0 63.238281 104.33789 A 37.79295 37.793514 0 0 0 62.853516 103.99219 A 37.79295 37.793514 0 0 0 62.464844 103.65234 A 37.79295 37.793514 0 0 0 62.070312 103.31836 A 37.79295 37.793514 0 0 0 61.671875 102.98828 A 37.79295 37.793514 0 0 0 61.269531 102.66406 A 37.79295 37.793514 0 0 0 60.861328 102.3457 A 37.79295 37.793514 0 0 0 60.451172 102.0332 A 37.79295 37.793514 0 0 0 60.035156 101.72656 A 37.79295 37.793514 0 0 0 59.615234 101.42578 A 37.79295 37.793514 0 0 0 59.189453 101.12891 A 37.79295 37.793514 0 0 0 58.761719 100.83984 A 37.79295 37.793514 0 0 0 58.330078 100.55664 A 37.79295 37.793514 0 0 0 57.894531 100.27734 A 37.79295 37.793514 0 0 0 57.455078 100.00586 A 37.79295 37.793514 0 0 0 57.011719 99.740234 A 37.79295 37.793514 0 0 0 56.564453 99.480469 A 37.79295 37.793514 0 0 0 56.113281 99.226562 A 37.79295 37.793514 0 0 0 55.660156 98.978516 A 37.79295 37.793514 0 0 0 55.203125 98.738281 A 37.79295 37.793514 0 0 0 54.742188 98.503906 A 37.79295 37.793514 0 0 0 54.279297 98.273438 A 37.79295 37.793514 0 0 0 53.8125 98.052734 A 37.79295 37.793514 0 0 0 53.341797 97.835938 A 37.79295 37.793514 0 0 0 52.869141 97.626953 A 37.79295 37.793514 0 0 0 52.394531 97.423828 A 37.79295 37.793514 0 0 0 51.964844 97.246094 A 37.79295 37.793514 0 0 0 51 96.873047 A 37.79295 37.793514 0 0 0 50.550781 96.708984 A 37.79295 37.793514 0 0 0 50.466797 96.677734 A 37.79295 37.793514 0 0 0 49.978516 96.507812 A 37.79295 37.793514 0 0 0 49.488281 96.34375 A 37.79295 37.793514 0 0 0 48.994141 96.1875 A 37.79295 37.793514 0 0 0 48.501953 96.037109 A 37.79295 37.793514 0 0 0 48.005859 95.894531 A 37.79295 37.793514 0 0 0 47.505859 95.757812 A 37.79295 37.793514 0 0 0 47.005859 95.628906 A 37.79295 37.793514 0 0 0 46.503906 95.505859 A 37.79295 37.793514 0 0 0 46 95.390625 A 37.79295 37.793514 0 0 0 45.494141 95.28125 A 37.79295 37.793514 0 0 0 44.988281 95.179688 A 37.79295 37.793514 0 0 0 43.970703 94.996094 A 37.79295 37.793514 0 0 0 43.458984 94.916016 A 37.79295 37.793514 0 0 0 42.947266 94.841797 A 37.79295 37.793514 0 0 0 42.435547 94.775391 A 37.79295 37.793514 0 0 0 41.921875 94.714844 A 37.79295 37.793514 0 0 0 41.408203 94.662109 A 37.79295 37.793514 0 0 0 40.814453 94.609375 A 37.79295 37.793514 0 0 0 40.376953 94.578125 A 37.79295 37.793514 0 0 0 39.931641 94.548828 A 37.79295 37.793514 0 0 0 39.744141 94.539062 A 37.79295 37.793514 0 0 0 39.345703 94.521484 A 37.79295 37.793514 0 0 0 38.828125 94.503906 A 37.79295 37.793514 0 0 0 38.310547 94.492188 A 37.79295 37.793514 0 0 0 37.796875 94.488281 A 37.79295 37.793514 0 0 0 37.785156 94.488281 A 37.79295 37.793514 0 0 0 37.359375 94.492188 A 37.79295 37.793514 0 0 0 36.958984 94.498047 A 37.79295 37.793514 0 0 0 36.943359 94.498047 A 37.79295 37.793514 0 0 0 36.439453 94.513672 A 37.79295 37.793514 0 0 0 36.324219 94.517578 A 37.79295 37.793514 0 0 0 35.808594 94.541016 A 37.79295 37.793514 0 0 0 35.291016 94.572266 A 37.79295 37.793514 0 0 0 34.775391 94.609375 A 37.79295 37.793514 0 0 0 33.746094 94.707031 A 37.79295 37.793514 0 0 0 33.232422 94.765625 A 37.79295 37.793514 0 0 0 32.869141 94.810547 A 37.79295 37.793514 0 0 0 32.814453 94.818359 A 37.79295 37.793514 0 0 0 32.357422 94.882812 A 37.79295 37.793514 0 0 0 31.900391 94.953125 A 37.79295 37.793514 0 0 0 31.699219 94.984375 A 37.79295 37.793514 0 0 0 31.242188 95.060547 A 37.79295 37.793514 0 0 0 29.591797 95.390625 A 37.79295 37.793514 0 0 0 29.087891 95.505859 A 37.79295 37.793514 0 0 0 28.585938 95.628906 A 37.79295 37.793514 0 0 0 28.083984 95.757812 A 37.79295 37.793514 0 0 0 27.558594 95.902344 A 37.79295 37.793514 0 0 0 27.546875 95.90625 A 37.79295 37.793514 0 0 0 27.089844 96.037109 A 37.79295 37.793514 0 0 0 26.59375 96.1875 A 37.79295 37.793514 0 0 0 26.101562 96.34375 A 37.79295 37.793514 0 0 0 25.611328 96.507812 A 37.79295 37.793514 0 0 0 25.123047 96.677734 A 37.79295 37.793514 0 0 0 23.625 97.246094 A 37.79295 37.793514 0 0 0 23.195312 97.423828 A 37.79295 37.793514 0 0 0 22.71875 97.626953 A 37.79295 37.793514 0 0 0 20.8125 98.519531 A 37.79295 37.793514 0 0 0 20.759766 98.546875 A 37.79295 37.793514 0 0 0 20.351562 98.755859 A 37.79295 37.793514 0 0 0 19.929688 98.978516 A 37.79295 37.793514 0 0 0 19.476562 99.226562 A 37.79295 37.793514 0 0 0 19.447266 99.244141 A 37.79295 37.793514 0 0 0 19.027344 99.480469 A 37.79295 37.793514 0 0 0 18.580078 99.740234 A 37.79295 37.793514 0 0 0 18.136719 100.00586 A 37.79295 37.793514 0 0 0 17.697266 100.27734 A 37.79295 37.793514 0 0 0 17.261719 100.55664 A 37.79295 37.793514 0 0 0 16.830078 100.83984 A 37.79295 37.793514 0 0 0 16.337891 101.17188 A 37.79295 37.793514 0 0 0 16.273438 101.2168 A 37.79295 37.793514 0 0 0 15.914062 101.46875 A 37.79295 37.793514 0 0 0 15.556641 101.72656 A 37.79295 37.793514 0 0 0 14.728516 102.3457 A 37.79295 37.793514 0 0 0 14.322266 102.66406 A 37.79295 37.793514 0 0 0 13.919922 102.98828 A 37.79295 37.793514 0 0 0 13.521484 103.31836 A 37.79295 37.793514 0 0 0 13.126953 103.65234 A 37.79295 37.793514 0 0 0 11.972656 104.68945 A 37.79295 37.793514 0 0 0 11.597656 105.04492 A 37.79295 37.793514 0 0 0 11.226562 105.40625 A 37.79295 37.793514 0 0 0 10.861328 105.77148 A 37.79295 37.793514 0 0 0 10.501953 106.14258 A 37.79295 37.793514 0 0 0 10.148438 106.51758 A 37.79295 37.793514 0 0 0 9.796875 106.89844 A 37.79295 37.793514 0 0 0 9.453125 107.2832 A 37.79295 37.793514 0 0 0 8.7792969 108.06836 A 37.79295 37.793514 0 0 0 8.1289062 108.87109 A 37.79295 37.793514 0 0 0 7.8105469 109.2793 A 37.79295 37.793514 0 0 0 7.4980469 109.69141 A 37.79295 37.793514 0 0 0 6.8925781 110.5293 A 37.79295 37.793514 0 0 0 6.5976562 110.95312 A 37.79295 37.793514 0 0 0 6.0253906 111.81445 A 37.79295 37.793514 0 0 0 5.7480469 112.25195 A 37.79295 37.793514 0 0 0 4.7011719 114.0332 A 37.79295 37.793514 0 0 0 4.4550781 114.48828 A 37.79295 37.793514 0 0 0 3.9804688 115.40625 A 37.79295 37.793514 0 0 0 3.53125 116.33789 A 37.79295 37.793514 0 0 0 3.1074219 117.28125 A 37.79295 37.793514 0 0 0 2.1640625 119.6875 A 37.79295 37.793514 0 0 0 1.8320312 120.66406 A 37.79295 37.793514 0 0 0 0.19335938 128.50195 L 0.19140625 128.50195 A 37.79295 37.793514 0 0 0 0.17382812 128.66992 A 37.79295 37.793514 0 0 0 0.12890625 129.18359 A 37.79295 37.793514 0 0 0 0.08984375 129.69922 A 37.79295 37.793514 0 0 0 0.0546875 130.21484 A 37.79295 37.793514 0 0 0 0.033203125 130.73242 A 37.79295 37.793514 0 0 0 0.013671875 131.24805 A 37.79295 37.793514 0 0 0 0.001953125 131.76562 A 37.79295 37.793514 0 0 0 0 132.2832 A 37.79295 37.793514 0 0 0 0.001953125 132.7168 A 37.79295 37.793514 0 0 0 0.013671875 133.23438 A 37.79295 37.793514 0 0 0 0.029296875 133.75 A 37.79295 37.793514 0 0 0 0.05078125 134.26758 A 37.79295 37.793514 0 0 0 0.08203125 134.7832 A 37.79295 37.793514 0 0 0 0.11914062 135.29883 A 37.79295 37.793514 0 0 0 0.1640625 135.81445 A 37.79295 37.793514 0 0 0 0.19140625 136.0625 L 0.19335938 136.0625 A 37.79295 37.793514 0 0 0 0.24804688 136.57617 A 37.79295 37.793514 0 0 0 0.31054688 137.08984 A 37.79295 37.793514 0 0 0 0.37890625 137.60156 A 37.79295 37.793514 0 0 0 0.45507812 138.11328 A 37.79295 37.793514 0 0 0 0.83007812 140.14648 A 37.79295 37.793514 0 0 0 0.94140625 140.65234 A 37.79295 37.793514 0 0 0 1.3164062 142.15625 A 37.79295 37.793514 0 0 0 2.2480469 145.11328 A 37.79295 37.793514 0 0 0 2.6113281 146.08008 A 37.79295 37.793514 0 0 0 2.8046875 146.5625 A 37.79295 37.793514 0 0 0 3.4199219 147.98633 A 37.79295 37.793514 0 0 0 4.09375 149.38281 A 37.79295 37.793514 0 0 0 4.3300781 149.8418 A 37.79295 37.793514 0 0 0 4.5742188 150.29883 A 37.79295 37.793514 0 0 0 4.8222656 150.75 A 37.79295 37.793514 0 0 0 5.078125 151.19922 A 37.79295 37.793514 0 0 0 5.3398438 151.64648 A 37.79295 37.793514 0 0 0 5.6074219 152.08789 A 37.79295 37.793514 0 0 0 5.8808594 152.52539 A 37.79295 37.793514 0 0 0 6.1621094 152.96094 A 37.79295 37.793514 0 0 0 6.4472656 153.39258 A 37.79295 37.793514 0 0 0 6.7304688 153.80859 A 37.79295 37.793514 0 0 0 6.7480469 153.83203 A 37.79295 37.793514 0 0 0 7.0371094 154.24219 A 37.79295 37.793514 0 0 0 7.3398438 154.66016 A 37.79295 37.793514 0 0 0 7.6484375 155.07422 A 37.79295 37.793514 0 0 0 7.9628906 155.48438 A 37.79295 37.793514 0 0 0 8.2832031 155.89062 A 37.79295 37.793514 0 0 0 8.609375 156.29297 A 37.79295 37.793514 0 0 0 9.2773438 157.08203 A 37.79295 37.793514 0 0 0 9.6191406 157.46875 A 37.79295 37.793514 0 0 0 10.318359 158.23047 A 37.79295 37.793514 0 0 0 10.675781 158.60352 A 37.79295 37.793514 0 0 0 11.039062 158.97266 A 37.79295 37.793514 0 0 0 11.40625 159.33594 A 37.79295 37.793514 0 0 0 11.779297 159.69531 A 37.79295 37.793514 0 0 0 12.15625 160.04883 A 37.79295 37.793514 0 0 0 12.537109 160.39648 A 37.79295 37.793514 0 0 0 12.923828 160.73828 A 37.79295 37.793514 0 0 0 13.316406 161.07617 A 37.79295 37.793514 0 0 0 13.712891 161.4082 A 37.79295 37.793514 0 0 0 14.113281 161.73633 A 37.79295 37.793514 0 0 0 14.517578 162.05664 A 37.79295 37.793514 0 0 0 14.927734 162.37305 A 37.79295 37.793514 0 0 0 15.341797 162.68164 A 37.79295 37.793514 0 0 0 15.759766 162.98633 A 37.79295 37.793514 0 0 0 16.181641 163.28516 A 37.79295 37.793514 0 0 0 16.607422 163.57812 A 37.79295 37.793514 0 0 0 17.011719 163.84766 A 37.79295 37.793514 0 0 0 17.013672 163.84961 A 37.79295 37.793514 0 0 0 17.017578 163.85156 A 37.79295 37.793514 0 0 0 17.433594 164.12109 A 37.79295 37.793514 0 0 0 17.462891 164.14062 A 37.79295 37.793514 0 0 0 17.871094 164.39844 A 37.79295 37.793514 0 0 0 17.90625 164.41797 A 37.79295 37.793514 0 0 0 18.277344 164.64648 A 37.79295 37.793514 0 0 0 18.830078 164.97266 A 37.79295 37.793514 0 0 0 19.244141 165.20898 A 37.79295 37.793514 0 0 0 19.628906 165.42383 A 37.79295 37.793514 0 0 0 19.669922 165.44727 A 37.79295 37.793514 0 0 0 19.716797 165.47266 A 37.79295 37.793514 0 0 0 19.734375 165.48242 A 37.79295 37.793514 0 0 0 20.152344 165.70508 A 37.79295 37.793514 0 0 0 20.611328 165.94336 A 37.79295 37.793514 0 0 0 21.072266 166.17578 A 37.79295 37.793514 0 0 0 21.466797 166.36719 A 37.79295 37.793514 0 0 0 21.507812 166.38672 A 37.79295 37.793514 0 0 0 21.796875 166.52344 A 37.79295 37.793514 0 0 0 22.126953 166.67578 A 37.79295 37.793514 0 0 0 22.154297 166.6875 A 37.79295 37.793514 0 0 0 22.476562 166.83203 A 37.79295 37.793514 0 0 0 22.859375 167 A 37.79295 37.793514 0 0 0 22.896484 167.01562 A 37.79295 37.793514 0 0 0 23.017578 167.06641 A 37.79295 37.793514 0 0 0 23.427734 167.23828 A 37.79295 37.793514 0 0 0 23.90625 167.43164 A 37.79295 37.793514 0 0 0 24.457031 167.64453 A 37.79295 37.793514 0 0 0 24.818359 167.7793 A 37.79295 37.793514 0 0 0 25.884766 168.15039 A 37.79295 37.793514 0 0 0 25.916016 168.16016 A 37.79295 37.793514 0 0 0 26.34375 168.29883 A 37.79295 37.793514 0 0 0 26.773438 168.43359 A 37.79295 37.793514 0 0 0 26.892578 168.46875 A 37.79295 37.793514 0 0 0 27.271484 168.58203 A 37.79295 37.793514 0 0 0 27.287109 168.58594 A 37.79295 37.793514 0 0 0 27.621094 168.68164 A 37.79295 37.793514 0 0 0 28.041016 168.79688 A 37.79295 37.793514 0 0 0 28.136719 168.82227 A 37.79295 37.793514 0 0 0 28.501953 168.91602 A 37.79295 37.793514 0 0 0 28.861328 169.00391 A 37.79295 37.793514 0 0 0 29.292969 169.10742 A 37.79295 37.793514 0 0 0 29.873047 169.23633 A 37.79295 37.793514 0 0 0 30.302734 169.32617 A 37.79295 37.793514 0 0 0 30.869141 169.4375 A 37.79295 37.793514 0 0 0 30.986328 169.45898 A 37.79295 37.793514 0 0 0 31.287109 169.51172 A 37.79295 37.793514 0 0 0 31.337891 169.52148 A 37.79295 37.793514 0 0 0 31.388672 169.5293 A 37.79295 37.793514 0 0 0 31.826172 169.60156 A 37.79295 37.793514 0 0 0 31.855469 169.60742 A 37.79295 37.793514 0 0 0 32.492188 169.70312 A 37.79295 37.793514 0 0 0 32.523438 169.70703 A 37.79295 37.793514 0 0 0 32.783203 169.74219 A 37.79295 37.793514 0 0 0 33.173828 169.79297 A 37.79295 37.793514 0 0 0 33.613281 169.8457 A 37.79295 37.793514 0 0 0 33.722656 169.85742 A 37.79295 37.793514 0 0 0 34.138672 169.90039 A 37.79295 37.793514 0 0 0 34.511719 169.93359 A 37.79295 37.793514 0 0 0 34.792969 169.95898 A 37.79295 37.793514 0 0 0 34.826172 169.96094 A 37.79295 37.793514 0 0 0 35.212891 169.98828 A 37.79295 37.793514 0 0 0 35.652344 170.01562 A 37.79295 37.793514 0 0 0 35.783203 170.02344 A 37.79295 37.793514 0 0 0 36.246094 170.04492 A 37.79295 37.793514 0 0 0 36.761719 170.0625 A 37.79295 37.793514 0 0 0 37.279297 170.07422 A 37.79295 37.793514 0 0 0 37.796875 170.07812 A 37.79295 37.793514 0 0 0 37.798828 170.07812 A 37.79295 37.793514 0 0 0 38.230469 170.07422 A 37.79295 37.793514 0 0 0 38.654297 170.06836 A 37.79295 37.793514 0 0 0 39.263672 170.04883 A 37.79295 37.793514 0 0 0 39.78125 170.02539 A 37.79295 37.793514 0 0 0 40.296875 169.99414 A 37.79295 37.793514 0 0 0 40.8125 169.95703 A 37.79295 37.793514 0 0 0 41.28125 169.91602 A 37.79295 37.793514 0 0 0 41.541016 169.89062 A 37.79295 37.793514 0 0 0 41.917969 169.85156 A 37.79295 37.793514 0 0 0 41.925781 169.85156 A 37.79295 37.793514 0 0 0 42.355469 169.80078 A 37.79295 37.793514 0 0 0 42.796875 169.74609 A 37.79295 37.793514 0 0 0 42.984375 169.71875 A 37.79295 37.793514 0 0 0 43.380859 169.66211 A 37.79295 37.793514 0 0 0 43.890625 169.58203 A 37.79295 37.793514 0 0 0 44.398438 169.49609 A 37.79295 37.793514 0 0 0 44.90625 169.40234 A 37.79295 37.793514 0 0 0 45.414062 169.30078 A 37.79295 37.793514 0 0 0 45.919922 169.19336 A 37.79295 37.793514 0 0 0 46.925781 168.95703 A 37.79295 37.793514 0 0 0 47.925781 168.69336 A 37.79295 37.793514 0 0 0 48.339844 168.57617 A 37.79295 37.793514 0 0 0 48.689453 168.47266 A 37.79295 37.793514 0 0 0 49 168.37891 A 37.79295 37.793514 0 0 0 49.410156 168.24805 A 37.79295 37.793514 0 0 0 49.902344 168.08594 A 37.79295 37.793514 0 0 0 50.390625 167.91602 A 37.79295 37.793514 0 0 0 50.873047 167.74414 A 37.79295 37.793514 0 0 0 50.876953 167.74219 A 37.79295 37.793514 0 0 0 51.361328 167.55859 A 37.79295 37.793514 0 0 0 51.837891 167.37305 A 37.79295 37.793514 0 0 0 52.320312 167.17383 A 37.79295 37.793514 0 0 0 52.796875 166.97266 A 37.79295 37.793514 0 0 0 53.269531 166.76367 A 37.79295 37.793514 0 0 0 53.740234 166.54883 A 37.79295 37.793514 0 0 0 54.207031 166.32812 A 37.79295 37.793514 0 0 0 54.669922 166.09961 A 37.79295 37.793514 0 0 0 55.130859 165.86719 A 37.79295 37.793514 0 0 0 55.591797 165.625 A 37.79295 37.793514 0 0 0 56.042969 165.37891 A 37.79295 37.793514 0 0 0 56.494141 165.12695 A 37.79295 37.793514 0 0 0 56.943359 164.86719 A 37.79295 37.793514 0 0 0 57.386719 164.60352 A 37.79295 37.793514 0 0 0 57.826172 164.33203 A 37.79295 37.793514 0 0 0 58.263672 164.05469 A 37.79295 37.793514 0 0 0 58.695312 163.77148 A 37.79295 37.793514 0 0 0 59.125 163.48438 A 37.79295 37.793514 0 0 0 59.548828 163.18945 A 37.79295 37.793514 0 0 0 59.970703 162.88867 A 37.79295 37.793514 0 0 0 60.386719 162.58203 A 37.79295 37.793514 0 0 0 60.798828 162.26953 A 37.79295 37.793514 0 0 0 61.207031 161.95312 A 37.79295 37.793514 0 0 0 61.611328 161.62891 A 37.79295 37.793514 0 0 0 62.009766 161.30078 A 37.79295 37.793514 0 0 0 62.404297 160.9668 A 37.79295 37.793514 0 0 0 62.791016 160.63281 A 37.79295 37.793514 0 0 0 63.179688 160.2832 A 37.79295 37.793514 0 0 0 63.560547 159.93359 A 37.79295 37.793514 0 0 0 63.935547 159.57812 A 37.79295 37.793514 0 0 0 64.306641 159.21875 A 37.79295 37.793514 0 0 0 64.673828 158.85352 A 37.79295 37.793514 0 0 0 64.732422 158.79492 A 37.79295 37.793514 0 0 0 65.033203 158.48242 A 37.79295 37.793514 0 0 0 65.388672 158.10742 A 37.79295 37.793514 0 0 0 65.740234 157.72852 A 37.79295 37.793514 0 0 0 66.085938 157.34375 A 37.79295 37.793514 0 0 0 66.425781 156.95508 A 37.79295 37.793514 0 0 0 66.759766 156.56055 A 37.79295 37.793514 0 0 0 67.089844 156.16211 A 37.79295 37.793514 0 0 0 67.414062 155.75977 A 37.79295 37.793514 0 0 0 67.732422 155.35156 A 37.79295 37.793514 0 0 0 68.044922 154.93945 A 37.79295 37.793514 0 0 0 68.351562 154.52539 A 37.79295 37.793514 0 0 0 68.654297 154.10352 A 37.79295 37.793514 0 0 0 68.949219 153.67969 A 37.79295 37.793514 0 0 0 69.238281 153.25195 A 37.79295 37.793514 0 0 0 69.523438 152.82227 A 37.79295 37.793514 0 0 0 69.800781 152.38672 A 37.79295 37.793514 0 0 0 70.070312 151.94727 A 37.79295 37.793514 0 0 0 70.337891 151.50391 A 37.79295 37.793514 0 0 0 70.595703 151.05664 A 37.79295 37.793514 0 0 0 70.851562 150.60547 A 37.79295 37.793514 0 0 0 71.097656 150.15234 A 37.79295 37.793514 0 0 0 71.339844 149.69531 A 37.79295 37.793514 0 0 0 71.574219 149.23438 A 37.79295 37.793514 0 0 0 71.804688 148.77148 A 37.79295 37.793514 0 0 0 72.027344 148.30469 A 37.79295 37.793514 0 0 0 72.240234 147.83398 A 37.79295 37.793514 0 0 0 72.449219 147.36133 A 37.79295 37.793514 0 0 0 72.652344 146.88672 A 37.79295 37.793514 0 0 0 72.849609 146.4082 A 37.79295 37.793514 0 0 0 73.039062 145.92773 A 37.79295 37.793514 0 0 0 73.222656 145.44336 A 37.79295 37.793514 0 0 0 73.400391 144.95703 A 37.79295 37.793514 0 0 0 73.570312 144.4707 A 37.79295 37.793514 0 0 0 73.732422 143.97852 A 37.79295 37.793514 0 0 0 73.888672 143.48633 A 37.79295 37.793514 0 0 0 74.039062 142.99219 A 37.79295 37.793514 0 0 0 74.181641 142.49414 A 37.79295 37.793514 0 0 0 74.318359 141.99609 A 37.79295 37.793514 0 0 0 74.447266 141.49609 A 37.79295 37.793514 0 0 0 74.570312 140.99414 A 37.79295 37.793514 0 0 0 74.685547 140.49023 A 37.79295 37.793514 0 0 0 74.794922 139.98438 A 37.79295 37.793514 0 0 0 74.896484 139.47852 A 37.79295 37.793514 0 0 0 74.992188 138.96875 A 37.79295 37.793514 0 0 0 75.080078 138.46094 A 37.79295 37.793514 0 0 0 75.160156 137.94922 A 37.79295 37.793514 0 0 0 75.234375 137.4375 A 37.79295 37.793514 0 0 0 75.300781 136.92578 A 37.79295 37.793514 0 0 0 75.361328 136.41211 A 37.79295 37.793514 0 0 0 75.396484 136.0625 L 188.97656 136.0625 L 188.97656 226.77148 L 362.83398 135.43359 L 362.83398 226.77148 L 415.74805 226.77148 L 415.74805 136.0625 L 529.32227 136.0625 A 37.795276 37.795276 0 0 0 529.32227 136.06445 L 529.32422 136.06445 A 37.795276 37.795276 0 0 0 529.37891 136.57812 A 37.795276 37.795276 0 0 0 529.44141 137.0918 A 37.795276 37.795276 0 0 0 529.50977 137.60352 A 37.795276 37.795276 0 0 0 529.58789 138.11523 A 37.795276 37.795276 0 0 0 529.96094 140.14844 A 37.795276 37.795276 0 0 0 530.07227 140.6543 A 37.795276 37.795276 0 0 0 530.44727 142.1582 A 37.795276 37.795276 0 0 0 531.37891 145.11523 A 37.795276 37.795276 0 0 0 531.74219 146.08203 A 37.795276 37.795276 0 0 0 531.93555 146.56445 A 37.795276 37.795276 0 0 0 532.55078 147.98828 A 37.795276 37.795276 0 0 0 533.22461 149.38477 A 37.795276 37.795276 0 0 0 533.46094 149.84375 A 37.795276 37.795276 0 0 0 533.70508 150.30078 A 37.795276 37.795276 0 0 0 533.95312 150.75195 A 37.795276 37.795276 0 0 0 534.20898 151.20117 A 37.795276 37.795276 0 0 0 534.4707 151.64844 A 37.795276 37.795276 0 0 0 534.73828 152.08984 A 37.795276 37.795276 0 0 0 535.01172 152.52734 A 37.795276 37.795276 0 0 0 535.29297 152.96289 A 37.795276 37.795276 0 0 0 535.57812 153.39453 A 37.795276 37.795276 0 0 0 535.86133 153.81055 A 37.795276 37.795276 0 0 0 535.88086 153.83398 A 37.795276 37.795276 0 0 0 536.16992 154.24414 A 37.795276 37.795276 0 0 0 536.47266 154.66211 A 37.795276 37.795276 0 0 0 536.78125 155.07617 A 37.795276 37.795276 0 0 0 537.0957 155.48633 A 37.795276 37.795276 0 0 0 537.41602 155.89258 A 37.795276 37.795276 0 0 0 537.74219 156.29492 A 37.795276 37.795276 0 0 0 538.41016 157.08398 A 37.795276 37.795276 0 0 0 538.75195 157.4707 A 37.795276 37.795276 0 0 0 539.45117 158.23242 A 37.795276 37.795276 0 0 0 539.80859 158.60547 A 37.795276 37.795276 0 0 0 540.17188 158.97461 A 37.795276 37.795276 0 0 0 540.53906 159.33789 A 37.795276 37.795276 0 0 0 540.91211 159.69727 A 37.795276 37.795276 0 0 0 541.28906 160.05078 A 37.795276 37.795276 0 0 0 541.66992 160.39844 A 37.795276 37.795276 0 0 0 542.05664 160.74023 A 37.795276 37.795276 0 0 0 542.44922 161.07812 A 37.795276 37.795276 0 0 0 542.8457 161.41016 A 37.795276 37.795276 0 0 0 543.24609 161.73828 A 37.795276 37.795276 0 0 0 543.65039 162.05859 A 37.795276 37.795276 0 0 0 544.06055 162.375 A 37.795276 37.795276 0 0 0 544.47461 162.68359 A 37.795276 37.795276 0 0 0 544.89258 162.98828 A 37.795276 37.795276 0 0 0 545.31445 163.28711 A 37.795276 37.795276 0 0 0 545.74023 163.58008 A 37.795276 37.795276 0 0 0 546.14453 163.84961 A 37.795276 37.795276 0 0 0 546.14648 163.85156 A 37.795276 37.795276 0 0 0 546.15039 163.85352 A 37.795276 37.795276 0 0 0 546.56641 164.12305 A 37.795276 37.795276 0 0 0 546.5957 164.14258 A 37.795276 37.795276 0 0 0 547.00391 164.40039 A 37.795276 37.795276 0 0 0 547.03711 164.41992 A 37.795276 37.795276 0 0 0 547.4082 164.64844 A 37.795276 37.795276 0 0 0 547.96289 164.97461 A 37.795276 37.795276 0 0 0 548.375 165.21094 A 37.795276 37.795276 0 0 0 548.75977 165.42578 A 37.795276 37.795276 0 0 0 548.80273 165.44922 A 37.795276 37.795276 0 0 0 548.84961 165.47461 A 37.795276 37.795276 0 0 0 548.86719 165.48438 A 37.795276 37.795276 0 0 0 549.28516 165.70703 A 37.795276 37.795276 0 0 0 549.74414 165.94531 A 37.795276 37.795276 0 0 0 550.20508 166.17773 A 37.795276 37.795276 0 0 0 550.59961 166.36914 A 37.795276 37.795276 0 0 0 550.64062 166.38867 A 37.795276 37.795276 0 0 0 550.92969 166.52539 A 37.795276 37.795276 0 0 0 551.25977 166.67773 A 37.795276 37.795276 0 0 0 551.28711 166.68945 A 37.795276 37.795276 0 0 0 551.60938 166.83398 A 37.795276 37.795276 0 0 0 551.99219 167.00195 A 37.795276 37.795276 0 0 0 552.0293 167.01758 A 37.795276 37.795276 0 0 0 552.15039 167.06836 A 37.795276 37.795276 0 0 0 552.56055 167.24023 A 37.795276 37.795276 0 0 0 553.03906 167.43359 A 37.795276 37.795276 0 0 0 553.58984 167.64648 A 37.795276 37.795276 0 0 0 553.95117 167.78125 A 37.795276 37.795276 0 0 0 555.01758 168.15234 A 37.795276 37.795276 0 0 0 555.04688 168.16211 A 37.795276 37.795276 0 0 0 555.47461 168.30078 A 37.795276 37.795276 0 0 0 555.9043 168.43555 A 37.795276 37.795276 0 0 0 556.02539 168.4707 A 37.795276 37.795276 0 0 0 556.4043 168.58398 A 37.795276 37.795276 0 0 0 556.41992 168.58789 A 37.795276 37.795276 0 0 0 556.75391 168.68359 A 37.795276 37.795276 0 0 0 557.17383 168.79883 A 37.795276 37.795276 0 0 0 557.26953 168.82422 A 37.795276 37.795276 0 0 0 557.63477 168.91797 A 37.795276 37.795276 0 0 0 557.99414 169.00586 A 37.795276 37.795276 0 0 0 558.42578 169.10938 A 37.795276 37.795276 0 0 0 559.00586 169.23828 A 37.795276 37.795276 0 0 0 559.43555 169.32812 A 37.795276 37.795276 0 0 0 560.00195 169.43945 A 37.795276 37.795276 0 0 0 560.11914 169.46094 A 37.795276 37.795276 0 0 0 560.41992 169.51367 A 37.795276 37.795276 0 0 0 560.4707 169.52344 A 37.795276 37.795276 0 0 0 560.52148 169.53125 A 37.795276 37.795276 0 0 0 560.95898 169.60352 A 37.795276 37.795276 0 0 0 560.98828 169.60938 A 37.795276 37.795276 0 0 0 561.625 169.70508 A 37.795276 37.795276 0 0 0 561.65625 169.70898 A 37.795276 37.795276 0 0 0 561.91602 169.74414 A 37.795276 37.795276 0 0 0 562.30664 169.79492 A 37.795276 37.795276 0 0 0 562.74609 169.84766 A 37.795276 37.795276 0 0 0 562.85547 169.85938 A 37.795276 37.795276 0 0 0 563.27148 169.90234 A 37.795276 37.795276 0 0 0 563.64453 169.93555 A 37.795276 37.795276 0 0 0 563.92578 169.96094 A 37.795276 37.795276 0 0 0 563.95898 169.96289 A 37.795276 37.795276 0 0 0 564.3457 169.99023 A 37.795276 37.795276 0 0 0 564.78516 170.01758 A 37.795276 37.795276 0 0 0 564.91602 170.02539 A 37.795276 37.795276 0 0 0 565.37891 170.04688 A 37.795276 37.795276 0 0 0 565.89453 170.06445 A 37.795276 37.795276 0 0 0 566.41211 170.07617 A 37.795276 37.795276 0 0 0 566.92969 170.08008 A 37.795276 37.795276 0 0 0 566.93164 170.08008 A 37.795276 37.795276 0 0 0 567.36328 170.07617 A 37.795276 37.795276 0 0 0 567.78711 170.07031 A 37.795276 37.795276 0 0 0 568.39648 170.05078 A 37.795276 37.795276 0 0 0 568.91406 170.02734 A 37.795276 37.795276 0 0 0 569.42969 169.99609 A 37.795276 37.795276 0 0 0 569.94531 169.95898 A 37.795276 37.795276 0 0 0 570.41406 169.91797 A 37.795276 37.795276 0 0 0 570.67383 169.89258 A 37.795276 37.795276 0 0 0 571.05078 169.85352 A 37.795276 37.795276 0 0 0 571.05859 169.85352 A 37.795276 37.795276 0 0 0 571.48828 169.80273 A 37.795276 37.795276 0 0 0 571.92969 169.74805 A 37.795276 37.795276 0 0 0 572.11719 169.7207 A 37.795276 37.795276 0 0 0 572.51367 169.66406 A 37.795276 37.795276 0 0 0 573.02344 169.58398 A 37.795276 37.795276 0 0 0 573.5332 169.49805 A 37.795276 37.795276 0 0 0 574.04102 169.4043 A 37.795276 37.795276 0 0 0 574.54883 169.30273 A 37.795276 37.795276 0 0 0 575.05469 169.19531 A 37.795276 37.795276 0 0 0 576.06055 168.95898 A 37.795276 37.795276 0 0 0 577.06055 168.69531 A 37.795276 37.795276 0 0 0 577.47461 168.57812 A 37.795276 37.795276 0 0 0 577.82422 168.47461 A 37.795276 37.795276 0 0 0 578.13477 168.38086 A 37.795276 37.795276 0 0 0 578.54492 168.25 A 37.795276 37.795276 0 0 0 579.03711 168.08789 A 37.795276 37.795276 0 0 0 579.52539 167.91797 A 37.795276 37.795276 0 0 0 580.00781 167.74609 A 37.795276 37.795276 0 0 0 580.01172 167.74414 A 37.795276 37.795276 0 0 0 580.49609 167.56055 A 37.795276 37.795276 0 0 0 580.97266 167.375 A 37.795276 37.795276 0 0 0 581.45508 167.17578 A 37.795276 37.795276 0 0 0 581.93164 166.97461 A 37.795276 37.795276 0 0 0 582.4043 166.76562 A 37.795276 37.795276 0 0 0 582.875 166.55078 A 37.795276 37.795276 0 0 0 583.3418 166.33008 A 37.795276 37.795276 0 0 0 583.80469 166.10156 A 37.795276 37.795276 0 0 0 584.26562 165.86914 A 37.795276 37.795276 0 0 0 584.72656 165.62695 A 37.795276 37.795276 0 0 0 585.17773 165.38086 A 37.795276 37.795276 0 0 0 585.62891 165.12891 A 37.795276 37.795276 0 0 0 586.07812 164.86914 A 37.795276 37.795276 0 0 0 586.52148 164.60547 A 37.795276 37.795276 0 0 0 586.96094 164.33398 A 37.795276 37.795276 0 0 0 587.39844 164.05664 A 37.795276 37.795276 0 0 0 587.83008 163.77344 A 37.795276 37.795276 0 0 0 588.25977 163.48633 A 37.795276 37.795276 0 0 0 588.68359 163.19141 A 37.795276 37.795276 0 0 0 589.10547 162.89062 A 37.795276 37.795276 0 0 0 589.52148 162.58398 A 37.795276 37.795276 0 0 0 589.93359 162.27148 A 37.795276 37.795276 0 0 0 590.3418 161.95508 A 37.795276 37.795276 0 0 0 590.74609 161.63086 A 37.795276 37.795276 0 0 0 591.14453 161.30273 A 37.795276 37.795276 0 0 0 591.53906 160.96875 A 37.795276 37.795276 0 0 0 591.92578 160.63477 A 37.795276 37.795276 0 0 0 592.31445 160.28516 A 37.795276 37.795276 0 0 0 592.69531 159.93555 A 37.795276 37.795276 0 0 0 593.07031 159.58008 A 37.795276 37.795276 0 0 0 593.44141 159.2207 A 37.795276 37.795276 0 0 0 593.80859 158.85547 A 37.795276 37.795276 0 0 0 593.86719 158.79688 A 37.795276 37.795276 0 0 0 594.16797 158.48438 A 37.795276 37.795276 0 0 0 594.52344 158.10938 A 37.795276 37.795276 0 0 0 594.875 157.73047 A 37.795276 37.795276 0 0 0 595.2207 157.3457 A 37.795276 37.795276 0 0 0 595.56055 156.95703 A 37.795276 37.795276 0 0 0 595.89453 156.5625 A 37.795276 37.795276 0 0 0 596.22461 156.16406 A 37.795276 37.795276 0 0 0 596.54883 155.76172 A 37.795276 37.795276 0 0 0 596.86719 155.35352 A 37.795276 37.795276 0 0 0 597.17969 154.94141 A 37.795276 37.795276 0 0 0 597.48633 154.52734 A 37.795276 37.795276 0 0 0 597.78906 154.10547 A 37.795276 37.795276 0 0 0 598.08398 153.68164 A 37.795276 37.795276 0 0 0 598.37305 153.25391 A 37.795276 37.795276 0 0 0 598.6582 152.82227 A 37.795276 37.795276 0 0 0 598.93555 152.38672 A 37.795276 37.795276 0 0 0 599.20703 151.94727 A 37.795276 37.795276 0 0 0 599.47266 151.50391 A 37.795276 37.795276 0 0 0 599.73242 151.05664 A 37.795276 37.795276 0 0 0 599.98633 150.60547 A 37.795276 37.795276 0 0 0 600.23438 150.15234 A 37.795276 37.795276 0 0 0 600.47461 149.69531 A 37.795276 37.795276 0 0 0 600.71094 149.23438 A 37.795276 37.795276 0 0 0 600.93945 148.77148 A 37.795276 37.795276 0 0 0 601.16211 148.30469 A 37.795276 37.795276 0 0 0 601.37695 147.83398 A 37.795276 37.795276 0 0 0 601.58594 147.36133 A 37.795276 37.795276 0 0 0 601.78906 146.88672 A 37.795276 37.795276 0 0 0 601.98633 146.4082 A 37.795276 37.795276 0 0 0 602.17578 145.92773 A 37.795276 37.795276 0 0 0 602.35938 145.44336 A 37.795276 37.795276 0 0 0 602.53711 144.95703 A 37.795276 37.795276 0 0 0 602.70703 144.4707 A 37.795276 37.795276 0 0 0 602.86914 143.97852 A 37.795276 37.795276 0 0 0 603.02539 143.48633 A 37.795276 37.795276 0 0 0 603.17578 142.99219 A 37.795276 37.795276 0 0 0 603.31836 142.49414 A 37.795276 37.795276 0 0 0 603.45508 141.99609 A 37.795276 37.795276 0 0 0 603.58398 141.49609 A 37.795276 37.795276 0 0 0 603.70703 140.99414 A 37.795276 37.795276 0 0 0 603.82227 140.49023 A 37.795276 37.795276 0 0 0 603.93164 139.98438 A 37.795276 37.795276 0 0 0 604.0332 139.47852 A 37.795276 37.795276 0 0 0 604.12891 138.96875 A 37.795276 37.795276 0 0 0 604.2168 138.46094 A 37.795276 37.795276 0 0 0 604.29688 137.94922 A 37.795276 37.795276 0 0 0 604.37109 137.4375 A 37.795276 37.795276 0 0 0 604.4375 136.92578 A 37.795276 37.795276 0 0 0 604.49805 136.41211 A 37.795276 37.795276 0 0 0 604.55078 135.89844 A 37.795276 37.795276 0 0 0 604.59766 135.38281 A 37.795276 37.795276 0 0 0 604.63672 134.86719 A 37.795276 37.795276 0 0 0 604.66602 134.35156 A 37.795276 37.795276 0 0 0 604.69336 133.83398 A 37.795276 37.795276 0 0 0 604.71094 133.31836 A 37.795276 37.795276 0 0 0 604.72266 132.80078 A 37.795276 37.795276 0 0 0 604.72656 132.28516 A 37.795276 37.795276 0 0 0 604.72461 131.84961 A 37.795276 37.795276 0 0 0 604.71289 131.33203 A 37.795276 37.795276 0 0 0 604.69531 130.81641 A 37.795276 37.795276 0 0 0 604.67188 130.29883 A 37.795276 37.795276 0 0 0 604.64062 129.7832 A 37.795276 37.795276 0 0 0 604.60352 129.26758 A 37.795276 37.795276 0 0 0 604.55859 128.75391 A 37.795276 37.795276 0 0 0 604.50781 128.23828 A 37.795276 37.795276 0 0 0 604.44922 127.72461 A 37.795276 37.795276 0 0 0 604.38281 127.21289 A 37.795276 37.795276 0 0 0 604.31055 126.70117 A 37.795276 37.795276 0 0 0 604.23047 126.18945 A 37.795276 37.795276 0 0 0 604.14258 125.67969 A 37.795276 37.795276 0 0 0 604.04883 125.17188 A 37.795276 37.795276 0 0 0 603.94922 124.66406 A 37.795276 37.795276 0 0 0 603.83984 124.1582 A 37.795276 37.795276 0 0 0 603.72656 123.6543 A 37.795276 37.795276 0 0 0 603.60547 123.15234 A 37.795276 37.795276 0 0 0 603.47656 122.65234 A 37.795276 37.795276 0 0 0 603.3418 122.15234 A 37.795276 37.795276 0 0 0 603.19922 121.65625 A 37.795276 37.795276 0 0 0 603.05078 121.16016 A 37.795276 37.795276 0 0 0 602.89453 120.66797 A 37.795276 37.795276 0 0 0 602.73242 120.17578 A 37.795276 37.795276 0 0 0 602.56445 119.6875 A 37.795276 37.795276 0 0 0 602.38867 119.20117 A 37.795276 37.795276 0 0 0 602.20508 118.71875 A 37.795276 37.795276 0 0 0 602.01758 118.23633 A 37.795276 37.795276 0 0 0 601.82227 117.75781 A 37.795276 37.795276 0 0 0 601.61914 117.2832 A 37.795276 37.795276 0 0 0 601.41211 116.80859 A 37.795276 37.795276 0 0 0 601.19531 116.33984 A 37.795276 37.795276 0 0 0 600.97461 115.87109 A 37.795276 37.795276 0 0 0 600.74805 115.4082 A 37.795276 37.795276 0 0 0 600.51367 114.94727 A 37.795276 37.795276 0 0 0 600.27344 114.48828 A 37.795276 37.795276 0 0 0 600.23633 114.41797 A 37.795276 37.795276 0 0 0 600.02734 114.03516 A 37.795276 37.795276 0 0 0 599.77344 113.58398 A 37.795276 37.795276 0 0 0 599.51562 113.13672 A 37.795276 37.795276 0 0 0 599.25 112.69141 A 37.795276 37.795276 0 0 0 598.97852 112.25195 A 37.795276 37.795276 0 0 0 598.70117 111.81641 A 37.795276 37.795276 0 0 0 598.41992 111.38281 A 37.795276 37.795276 0 0 0 598.13086 110.95508 A 37.795276 37.795276 0 0 0 597.83594 110.5293 A 37.795276 37.795276 0 0 0 597.53516 110.10938 A 37.795276 37.795276 0 0 0 597.22852 109.69141 A 37.795276 37.795276 0 0 0 596.91797 109.2793 A 37.795276 37.795276 0 0 0 596.86914 109.21484 A 37.795276 37.795276 0 0 0 596.59961 108.87109 A 37.795276 37.795276 0 0 0 596.27734 108.46875 A 37.795276 37.795276 0 0 0 595.94727 108.06836 A 37.795276 37.795276 0 0 0 595.61523 107.67383 A 37.795276 37.795276 0 0 0 595.27539 107.28516 A 37.795276 37.795276 0 0 0 594.92969 106.89844 A 37.795276 37.795276 0 0 0 594.58008 106.51758 A 37.795276 37.795276 0 0 0 594.22461 106.14258 A 37.795276 37.795276 0 0 0 593.86523 105.77148 A 37.795276 37.795276 0 0 0 593.5 105.40625 A 37.795276 37.795276 0 0 0 593.13086 105.04492 A 37.795276 37.795276 0 0 0 592.75586 104.68945 A 37.795276 37.795276 0 0 0 592.375 104.33789 A 37.795276 37.795276 0 0 0 591.99023 103.99219 A 37.795276 37.795276 0 0 0 591.60156 103.65234 A 37.795276 37.795276 0 0 0 591.20703 103.31836 A 37.795276 37.795276 0 0 0 590.80859 102.98828 A 37.795276 37.795276 0 0 0 590.40625 102.66406 A 37.795276 37.795276 0 0 0 589.99805 102.3457 A 37.795276 37.795276 0 0 0 589.58789 102.0332 A 37.795276 37.795276 0 0 0 589.17188 101.72656 A 37.795276 37.795276 0 0 0 588.75195 101.42578 A 37.795276 37.795276 0 0 0 588.32617 101.12891 A 37.795276 37.795276 0 0 0 587.89844 100.83984 A 37.795276 37.795276 0 0 0 587.4668 100.55664 A 37.795276 37.795276 0 0 0 587.03125 100.27734 A 37.795276 37.795276 0 0 0 586.5918 100.00586 A 37.795276 37.795276 0 0 0 586.14844 99.740234 A 37.795276 37.795276 0 0 0 585.70117 99.480469 A 37.795276 37.795276 0 0 0 585.25 99.226562 A 37.795276 37.795276 0 0 0 584.79688 98.978516 A 37.795276 37.795276 0 0 0 584.33984 98.738281 A 37.795276 37.795276 0 0 0 583.87891 98.503906 A 37.795276 37.795276 0 0 0 583.41602 98.273438 A 37.795276 37.795276 0 0 0 582.94922 98.052734 A 37.795276 37.795276 0 0 0 582.47852 97.835938 A 37.795276 37.795276 0 0 0 582.00586 97.626953 A 37.795276 37.795276 0 0 0 581.53125 97.423828 A 37.795276 37.795276 0 0 0 581.10156 97.246094 A 37.795276 37.795276 0 0 0 580.13672 96.873047 A 37.795276 37.795276 0 0 0 579.6875 96.708984 A 37.795276 37.795276 0 0 0 579.60352 96.677734 A 37.795276 37.795276 0 0 0 579.11523 96.507812 A 37.795276 37.795276 0 0 0 578.625 96.34375 A 37.795276 37.795276 0 0 0 578.13086 96.1875 A 37.795276 37.795276 0 0 0 577.63672 96.037109 A 37.795276 37.795276 0 0 0 577.14062 95.894531 A 37.795276 37.795276 0 0 0 576.64062 95.757812 A 37.795276 37.795276 0 0 0 576.14062 95.628906 A 37.795276 37.795276 0 0 0 575.63867 95.505859 A 37.795276 37.795276 0 0 0 575.13477 95.390625 A 37.795276 37.795276 0 0 0 574.62891 95.28125 A 37.795276 37.795276 0 0 0 574.12305 95.179688 A 37.795276 37.795276 0 0 0 573.10547 94.996094 A 37.795276 37.795276 0 0 0 572.59375 94.916016 A 37.795276 37.795276 0 0 0 572.08203 94.841797 A 37.795276 37.795276 0 0 0 571.57031 94.775391 A 37.795276 37.795276 0 0 0 571.05664 94.714844 A 37.795276 37.795276 0 0 0 570.54297 94.662109 A 37.795276 37.795276 0 0 0 569.94922 94.609375 A 37.795276 37.795276 0 0 0 569.51172 94.578125 A 37.795276 37.795276 0 0 0 569.06641 94.548828 A 37.795276 37.795276 0 0 0 568.87891 94.539062 A 37.795276 37.795276 0 0 0 568.48047 94.521484 A 37.795276 37.795276 0 0 0 567.96289 94.503906 A 37.795276 37.795276 0 0 0 567.44531 94.492188 A 37.795276 37.795276 0 0 0 566.93164 94.488281 A 37.795276 37.795276 0 0 0 566.91992 94.488281 A 37.795276 37.795276 0 0 0 566.49414 94.492188 A 37.795276 37.795276 0 0 0 566.09375 94.498047 A 37.795276 37.795276 0 0 0 566.07812 94.498047 A 37.795276 37.795276 0 0 0 565.57422 94.513672 A 37.795276 37.795276 0 0 0 565.45898 94.517578 A 37.795276 37.795276 0 0 0 564.94336 94.541016 A 37.795276 37.795276 0 0 0 564.42578 94.572266 A 37.795276 37.795276 0 0 0 563.91016 94.609375 A 37.795276 37.795276 0 0 0 562.88086 94.707031 A 37.795276 37.795276 0 0 0 562.36719 94.765625 A 37.795276 37.795276 0 0 0 562.00391 94.810547 A 37.795276 37.795276 0 0 0 561.94922 94.818359 A 37.795276 37.795276 0 0 0 561.49219 94.882812 A 37.795276 37.795276 0 0 0 561.03516 94.953125 A 37.795276 37.795276 0 0 0 560.83203 94.984375 A 37.795276 37.795276 0 0 0 560.375 95.060547 A 37.795276 37.795276 0 0 0 558.72461 95.390625 A 37.795276 37.795276 0 0 0 558.2207 95.505859 A 37.795276 37.795276 0 0 0 557.71875 95.628906 A 37.795276 37.795276 0 0 0 557.2168 95.757812 A 37.795276 37.795276 0 0 0 556.69141 95.902344 A 37.795276 37.795276 0 0 0 556.67969 95.90625 A 37.795276 37.795276 0 0 0 556.22266 96.037109 A 37.795276 37.795276 0 0 0 555.72656 96.1875 A 37.795276 37.795276 0 0 0 555.23438 96.34375 A 37.795276 37.795276 0 0 0 554.74414 96.507812 A 37.795276 37.795276 0 0 0 554.25586 96.677734 A 37.795276 37.795276 0 0 0 552.75781 97.246094 A 37.795276 37.795276 0 0 0 552.32812 97.423828 A 37.795276 37.795276 0 0 0 551.85156 97.626953 A 37.795276 37.795276 0 0 0 549.94531 98.519531 A 37.795276 37.795276 0 0 0 549.89258 98.546875 A 37.795276 37.795276 0 0 0 549.48438 98.755859 A 37.795276 37.795276 0 0 0 549.0625 98.978516 A 37.795276 37.795276 0 0 0 548.60938 99.226562 A 37.795276 37.795276 0 0 0 548.58008 99.244141 A 37.795276 37.795276 0 0 0 548.16016 99.480469 A 37.795276 37.795276 0 0 0 547.71289 99.740234 A 37.795276 37.795276 0 0 0 547.26953 100.00586 A 37.795276 37.795276 0 0 0 546.83008 100.27734 A 37.795276 37.795276 0 0 0 546.39453 100.55664 A 37.795276 37.795276 0 0 0 545.96289 100.83984 A 37.795276 37.795276 0 0 0 545.4707 101.17188 A 37.795276 37.795276 0 0 0 545.40625 101.2168 A 37.795276 37.795276 0 0 0 545.04688 101.46875 A 37.795276 37.795276 0 0 0 544.68945 101.72656 A 37.795276 37.795276 0 0 0 543.86133 102.3457 A 37.795276 37.795276 0 0 0 543.45508 102.66406 A 37.795276 37.795276 0 0 0 543.05273 102.98828 A 37.795276 37.795276 0 0 0 542.6543 103.31836 A 37.795276 37.795276 0 0 0 542.25977 103.65234 A 37.795276 37.795276 0 0 0 541.10547 104.68945 A 37.795276 37.795276 0 0 0 540.73047 105.04492 A 37.795276 37.795276 0 0 0 540.35938 105.40625 A 37.795276 37.795276 0 0 0 539.99414 105.77148 A 37.795276 37.795276 0 0 0 539.63477 106.14258 A 37.795276 37.795276 0 0 0 539.28125 106.51758 A 37.795276 37.795276 0 0 0 538.92969 106.89844 A 37.795276 37.795276 0 0 0 538.58594 107.2832 A 37.795276 37.795276 0 0 0 537.91211 108.06836 A 37.795276 37.795276 0 0 0 537.26172 108.87109 A 37.795276 37.795276 0 0 0 536.94336 109.2793 A 37.795276 37.795276 0 0 0 536.63086 109.69141 A 37.795276 37.795276 0 0 0 536.02539 110.5293 A 37.795276 37.795276 0 0 0 535.73047 110.95312 A 37.795276 37.795276 0 0 0 535.1582 111.81445 A 37.795276 37.795276 0 0 0 534.88086 112.25195 A 37.795276 37.795276 0 0 0 533.83398 114.0332 A 37.795276 37.795276 0 0 0 533.58789 114.48828 A 37.795276 37.795276 0 0 0 533.11328 115.40625 A 37.795276 37.795276 0 0 0 532.66406 116.33789 A 37.795276 37.795276 0 0 0 532.24023 117.28125 A 37.795276 37.795276 0 0 0 531.29688 119.6875 A 37.795276 37.795276 0 0 0 530.96484 120.66602 A 37.795276 37.795276 0 0 0 529.32617 128.50391 L 415.74805 128.50391 L 415.74805 37.794922 L 362.83398 37.794922 L 362.83398 129.13281 L 188.97656 37.794922 z "
       transform="scale(0.26458333)" />
    <path
       style="fill:#ffffff;fill-opacity:1;stroke:none;stroke-width:0.543411;stroke-linejoin:round;stroke-miterlimit:4;stroke-dasharray:none;stroke-dashoffset:0;stroke-opacity:1"
       d="m 150,26.500165 a 8.4999678,8.5002446 0 0 1 8.5,8.500276 8.4999678,8.5002446 0 0 1 -8.5,8.499724 8.4999678,8.5002446 0 0 1 -8.5,-8.499724 8.4999678,8.5002446 0 0 1 8.5,-8.500276 z"
       id="path18" />
    <circle
       style="fill:#ffffff;fill-opacity:1;fill-rule:evenodd;stroke:none;stroke-width:0.563612;stroke-linecap:butt;stroke-linejoin:miter;stroke-miterlimit:4;stroke-dasharray:none;stroke-opacity:1;paint-order:fill markers stroke"
       cx="10"
       cy="34.99995"
       id="circle14"
       r="8.5" />
  </g>
</svg>
