<?xml version="1.0" encoding="UTF-8" standalone="no" ?>
<!DOCTYPE svg PUBLIC "-//W3C//DTD SVG 1.1//EN" "http://www.w3.org/Graphics/SVG/1.1/DTD/svg11.dtd">
<svg xmlns="http://www.w3.org/2000/svg" xmlns:xlink="http://www.w3.org/1999/xlink" version="1.1" width="200" height="200" viewBox="0 0 200 200" xml:space="preserve">
<desc>Created with Fabric.js 4.2.0</desc>
<defs>
</defs>
<g transform="matrix(1 0 0 1 100 100)" id="4fb807c7-9126-4af2-8bf9-f657ab04eeba"  >
<rect style="stroke: none; stroke-width: 1; stroke-dasharray: none; stroke-linecap: butt; stroke-dashoffset: 0; stroke-linejoin: miter; stroke-miterlimit: 4; fill: rgb(255,255,255); fill-rule: nonzero; opacity: 1;" vector-effect="non-scaling-stroke"  x="-100" y="-100" rx="0" ry="0" width="200" height="200" />
</g>
<g transform="matrix(0 0 0 0 0 0)" id="193412cc-88cf-4d89-ae80-60221efdb723"  >
</g>
<g transform="matrix(1.3 0 0 1.3 89.26 99.68)" id="f9f0f743-8420-4495-9670-7422ad08f69b"  >
<polygon style="stroke: rgb(0,0,0); stroke-width: 0; stroke-dasharray: none; stroke-linecap: butt; stroke-dashoffset: 0; stroke-linejoin: miter; stroke-miterlimit: 4; fill: rgb(0,0,0); fill-rule: nonzero; opacity: 1;" vector-effect="non-scaling-stroke"  points="-30.68,-37.41 30.68,0 -30.68,37.41 " />
</g>
<g transform="matrix(0.32 0 0 1.48 138.76 100)" id="1eb040ed-1643-4c60-a242-27b752693e9e"  >
<rect style="stroke: rgb(0,0,0); stroke-width: 0; stroke-dasharray: none; stroke-linecap: butt; stroke-dashoffset: 0; stroke-linejoin: miter; stroke-miterlimit: 4; fill: rgb(0,0,0); fill-rule: nonzero; opacity: 1;" vector-effect="non-scaling-stroke"  x="-33.085" y="-33.085" rx="0" ry="0" width="66.17" height="66.17" />
</g>
<g transform="matrix(0.67 0 0 0.67 32.18 100.06)"  >
<g style="" vector-effect="non-scaling-stroke"   >
		<g transform="matrix(0.36 0 0 0.36 -11.71 0)"  >
<path style="stroke: rgb(0,0,0); stroke-width: 5; stroke-dasharray: none; stroke-linecap: butt; stroke-dashoffset: 0; stroke-linejoin: miter; stroke-miterlimit: 4; fill: rgb(0,0,0); fill-rule: nonzero; opacity: 1;" vector-effect="non-scaling-stroke"  transform=" translate(-50, -50)" d="M 50 92.875 C 26.358 92.875 7.125 73.642 7.125 50 C 7.125 26.358000000000004 26.358 7.125 50 7.125 C 73.642 7.125 92.875 26.358 92.875 50 C 92.875 73.642 73.642 92.875 50 92.875 z M 50 9.125 C 27.461 9.125 9.125 27.461 9.125 50 C 9.125 72.538 27.461 90.875 50 90.875 C 72.538 90.875 90.875 72.538 90.875 50 C 90.875 27.461 72.538 9.125 50 9.125 z" stroke-linecap="round" />
</g>
		<g transform="matrix(0.42 0 0 0.11 15.75 -0.59)" id="ddd2e0c7-a766-43b9-9f04-cb4a169bfcdf"  >
<rect style="stroke: rgb(0,0,0); stroke-width: 0; stroke-dasharray: none; stroke-linecap: butt; stroke-dashoffset: 0; stroke-linejoin: miter; stroke-miterlimit: 4; fill: rgb(0,0,0); fill-rule: nonzero; opacity: 1;" vector-effect="non-scaling-stroke"  x="-33.085" y="-33.085" rx="0" ry="0" width="66.17" height="66.17" />
</g>
</g>
</g>
<g transform="matrix(-0.67 0 0 -0.67 167.82 99.94)"  >
<g style="" vector-effect="non-scaling-stroke"   >
		<g transform="matrix(0.36 0 0 0.36 -11.71 0)"  >
<path style="stroke: rgb(0,0,0); stroke-width: 5; stroke-dasharray: none; stroke-linecap: butt; stroke-dashoffset: 0; stroke-linejoin: miter; stroke-miterlimit: 4; fill: rgb(0,0,0); fill-rule: nonzero; opacity: 1;" vector-effect="non-scaling-stroke"  transform=" translate(-50, -50)" d="M 50 92.875 C 26.358 92.875 7.125 73.642 7.125 50 C 7.125 26.358000000000004 26.358 7.125 50 7.125 C 73.642 7.125 92.875 26.358 92.875 50 C 92.875 73.642 73.642 92.875 50 92.875 z M 50 9.125 C 27.461 9.125 9.125 27.461 9.125 50 C 9.125 72.538 27.461 90.875 50 90.875 C 72.538 90.875 90.875 72.538 90.875 50 C 90.875 27.461 72.538 9.125 50 9.125 z" stroke-linecap="round" />
</g>
		<g transform="matrix(0.42 0 0 0.11 15.75 -0.59)" id="ddd2e0c7-a766-43b9-9f04-cb4a169bfcdf"  >
<rect style="stroke: rgb(0,0,0); stroke-width: 0; stroke-dasharray: none; stroke-linecap: butt; stroke-dashoffset: 0; stroke-linejoin: miter; stroke-miterlimit: 4; fill: rgb(0,0,0); fill-rule: nonzero; opacity: 1;" vector-effect="non-scaling-stroke"  x="-33.085" y="-33.085" rx="0" ry="0" width="66.17" height="66.17" />
</g>
</g>
</g>
<g transform="matrix(0.31 0 0 0.31 174.97 99.91)" id="b5e156d1-0f71-411e-9594-2201de3f8909"  >
<circle style="stroke: rgb(0,0,0); stroke-width: 0; stroke-dasharray: none; stroke-linecap: butt; stroke-dashoffset: 0; stroke-linejoin: miter; stroke-miterlimit: 4; fill: rgb(0,0,0); fill-rule: nonzero; opacity: 1;" vector-effect="non-scaling-stroke"  cx="0" cy="0" r="35" />
</g>
</svg>